<?xml version="1.0" encoding="UTF-8" standalone="no"?>
<!-- Created with Inkscape (http://www.inkscape.org/) -->

<svg
   width="381mm"
   height="190.5mm"
   viewBox="0 0 381.00001 190.5"
   version="1.1"
   id="svg1"
   xml:space="preserve"
   inkscape:version="1.4.3 (0d15f75, 2025-12-25)"
   sodipodi:docname="garmin-meditate.svg"
   inkscape:export-filename="dist\cover-image.png"
   inkscape:export-xdpi="96"
   inkscape:export-ydpi="96"
   xmlns:inkscape="http://www.inkscape.org/namespaces/inkscape"
   xmlns:sodipodi="http://sodipodi.sourceforge.net/DTD/sodipodi-0.dtd"
   xmlns:xlink="http://www.w3.org/1999/xlink"
   xmlns="http://www.w3.org/2000/svg"
   xmlns:svg="http://www.w3.org/2000/svg"><sodipodi:namedview
     id="namedview1"
     pagecolor="#ffffff"
     bordercolor="#666666"
     borderopacity="1.0"
     inkscape:showpageshadow="2"
     inkscape:pageopacity="0.0"
     inkscape:pagecheckerboard="0"
     inkscape:deskcolor="#d1d1d1"
     inkscape:document-units="mm"
     inkscape:zoom="0.60126645"
     inkscape:cx="542.18891"
     inkscape:cy="755.0729"
     inkscape:window-width="1918"
     inkscape:window-height="2080"
     inkscape:window-x="-7"
     inkscape:window-y="0"
     inkscape:window-maximized="0"
     inkscape:current-layer="layer1"><inkscape:page
       x="0"
       y="0"
       width="381"
       height="190.5"
       id="page1"
       margin="0"
       bleed="0" /><inkscape:page
       x="9.6809549"
       y="223.98209"
       width="132.29167"
       height="132.29167"
       id="page4"
       margin="0"
       bleed="0"
       inkscape:export-filename="cover image.png"
       inkscape:export-xdpi="96"
       inkscape:export-ydpi="96" /></sodipodi:namedview><defs
     id="defs1"><linearGradient
       id="linearGradient3"
       inkscape:collect="always"><stop
         style="stop-color:#ffff00;stop-opacity:0;"
         offset="0"
         id="stop4" /><stop
         style="stop-color:#ffff00;stop-opacity:1;"
         offset="1"
         id="stop3" /></linearGradient><radialGradient
       inkscape:collect="always"
       xlink:href="#linearGradient3"
       id="radialGradient4"
       cx="100.19122"
       cy="231.4503"
       fx="100.19122"
       fy="231.4503"
       r="190.5"
       gradientTransform="matrix(1.9402391,0.01630828,-0.01116248,1.3271218,-100.19972,-87.216674)"
       gradientUnits="userSpaceOnUse"
       spreadMethod="pad" /></defs><g
     inkscape:label="Capa 1"
     inkscape:groupmode="layer"
     id="layer1"
     transform="translate(-4.0450494,-126.33002)"><rect
       style="opacity:1;vector-effect:none;fill:#ffffff;fill-opacity:1;stroke:none;stroke-width:0.264583px;stroke-linecap:butt;stroke-linejoin:miter;stroke-miterlimit:4;stroke-dasharray:none;stroke-dashoffset:0;stroke-opacity:1"
       id="rect4"
       width="132.29167"
       height="132.29167"
       x="13.726004"
       y="350.3121" /><rect
       style="opacity:1;vector-effect:none;fill:url(#radialGradient4);fill-opacity:1;stroke:none;stroke-width:0.264583px;stroke-linecap:butt;stroke-linejoin:miter;stroke-miterlimit:4;stroke-dasharray:none;stroke-dashoffset:0;stroke-opacity:1"
       id="rect3"
       width="381"
       height="190.5"
       x="4.0450492"
       y="126.33002" /><path
       style="fill:#482752;fill-opacity:1;stroke-width:1.05178"
       d="m 88.929785,289.28729 c -3.943989,-0.37983 -7.990609,-1.45518 -12.828574,-3.40908 -0.652565,-0.26355 -1.346657,-0.54249 -1.542427,-0.61986 -0.331077,-0.13085 -0.983541,-0.41264 -5.062325,-2.18642 -2.260293,-0.98295 -3.638532,-1.55401 -6.248807,-2.58916 -2.124502,-0.8425 -2.888904,-1.15061 -4.666831,-1.88108 -3.343837,-1.37384 -7.238436,-3.29189 -9.096365,-4.47987 -3.917179,-2.50468 -6.477333,-4.83565 -8.788092,-8.0014 -2.688923,-3.68382 -4.326657,-6.94701 -7.60205,-15.14708 -0.781973,-1.95769 -1.563753,-3.8976 -1.737292,-4.31088 -0.418855,-0.99753 -1.121237,-2.63841 -1.506696,-3.5199 -4.106184,-9.39025 -5.216282,-12.81071 -5.930056,-18.27183 -0.139723,-1.06903 -0.139723,-5.49618 0,-6.56521 0.659998,-5.04968 1.866811,-8.94329 5.001351,-16.13615 2.039815,-4.6808 2.488466,-5.74231 3.483503,-8.24198 1.197238,-3.00763 2.100035,-5.23343 2.528184,-6.23312 0.223588,-0.52205 0.491925,-1.15211 0.596305,-1.40013 0.574635,-1.36542 2.222002,-4.63645 2.984851,-5.92676 3.624007,-6.12975 7.692264,-9.82809 14.687637,-13.35217 2.302639,-1.16 4.358929,-2.04738 9.452309,-4.07911 3.801769,-1.5165 4.686432,-1.88366 7.43529,-3.08589 2.874786,-1.2573 4.603809,-1.99136 6.05106,-2.56899 8.095995,-3.23122 13.801566,-4.09387 20.413611,-3.08641 2.918632,0.44471 6.706509,1.56706 10.553589,3.12705 2.20521,0.89422 2.20546,0.89432 5.22052,2.20945 3.76935,1.64412 4.59674,1.98645 10.04555,4.15624 1.0006,0.39844 2.05064,0.82327 2.33341,0.94403 0.28278,0.12077 0.8701,0.37123 1.30513,0.55658 8.71056,3.71118 13.72054,7.57016 17.61477,13.56794 2.18625,3.36721 3.64958,6.46529 6.89315,14.59375 1.26343,3.16618 1.53498,3.82276 2.50257,6.05105 2.41719,5.56661 2.93402,6.8096 3.71636,8.93817 1.56115,4.24749 2.39258,7.97494 2.62448,11.76596 0.23008,3.76125 -0.4464,8.18447 -1.96276,12.83378 -0.81831,2.50901 -1.89656,5.1741 -4.4963,11.11338 -0.75914,1.73431 -0.81762,1.87628 -2.76923,6.7234 -0.88458,2.19697 -1.73852,4.29704 -1.89767,4.66684 -0.15913,0.36978 -0.38908,0.9037 -0.511,1.18648 -2.3084,5.35396 -4.91361,9.51264 -7.87207,12.56619 -2.41737,2.49506 -5.15457,4.47708 -8.93817,6.47217 -2.53888,1.33875 -4.56069,2.22776 -10.44105,4.59105 -4.92599,1.97974 -5.05108,2.03148 -7.27708,3.00949 -2.27112,0.99784 -4.37001,1.89474 -5.65557,2.41674 -5.3015,2.15267 -9.314254,3.22712 -13.486356,3.61107 -1.017351,0.0936 -4.12053,0.0886 -5.126859,-0.008 z m 6.146146,-3.34451 c 3.49848,-0.49318 7.105759,-1.55729 11.755179,-3.46762 0.72987,-0.29988 3.06981,-1.3056 5.57647,-2.3968 2.16102,-0.94073 2.54376,-1.09892 6.88159,-2.84412 5.26937,-2.11999 5.70207,-2.30217 7.77217,-3.27243 8.4145,-3.94391 12.57637,-8.00169 16.51843,-16.1053 1.01883,-2.09437 1.86457,-4.07436 3.63506,-8.51015 0.77153,-1.93294 1.72295,-4.26193 2.11427,-5.17552 0.75449,-1.7614 0.77926,-1.81874 2.03308,-4.70638 2.29251,-5.27978 3.50266,-8.79399 4.18877,-12.16393 0.42395,-2.08225 0.58027,-3.61771 0.58158,-5.7124 0.001,-2.08923 -0.15355,-3.61012 -0.58158,-5.71241 -0.78281,-3.84488 -2.02114,-7.27928 -5.31282,-14.73464 -0.17288,-0.39155 -0.39581,-0.90766 -0.49543,-1.14693 -0.0996,-0.23927 -0.34842,-0.82659 -0.55291,-1.30514 -0.20448,-0.47855 -1.09392,-2.66761 -1.97652,-4.86458 -1.97513,-4.91648 -2.60021,-6.37902 -3.63414,-8.50312 -3.94093,-8.09614 -8.07122,-12.12962 -16.45917,-16.07343 -1.82462,-0.85788 -4.03093,-1.78781 -7.98898,-3.36723 -3.28967,-1.31271 -5.08486,-2.06134 -8.10763,-3.38101 -7.7991,-3.4049 -11.386503,-4.58552 -16.01752,-5.27138 -1.35216,-0.20026 -5.421449,-0.20082 -6.840994,-9.4e-4 -3.204972,0.45128 -6.715517,1.43248 -10.521198,2.94069 -1.024823,0.40615 -4.219725,1.7607 -6.248807,2.64934 -0.413291,0.181 -1.125181,0.48938 -1.581977,0.68529 -2.148864,0.92161 -2.304109,0.98505 -7.39574,3.02209 -6.192112,2.47732 -8.894338,3.79084 -12.097284,5.88035 -4.267398,2.78395 -7.114151,6.01041 -9.876131,11.19342 -0.591681,1.11034 -1.608709,3.21445 -2.037045,4.21443 -0.850429,1.98537 -1.147748,2.70793 -2.099325,5.10187 -0.587953,1.47915 -1.171881,2.93852 -1.297618,3.24305 -0.963513,2.33359 -1.263116,3.04459 -1.899846,4.50864 -1.704333,3.91881 -2.644352,6.13536 -3.069372,7.23754 -1.238613,3.21201 -1.922242,5.43304 -2.422484,7.87038 -0.499107,2.4318 -0.556086,3.03959 -0.55245,5.89281 0.0028,2.25175 0.02502,2.71052 0.178535,3.69748 0.668028,4.29484 1.973984,8.27477 4.899155,14.9303 0.826272,1.87998 1.502088,3.4455 2.151209,4.98323 0.16528,0.39154 0.789804,1.93989 1.387831,3.4408 2.38874,5.99515 3.447806,8.41049 4.768877,10.87608 3.394749,6.33584 6.904852,9.82042 13.304399,13.2077 2.313131,1.22433 4.591318,2.23068 9.25479,4.08811 3.904916,1.55531 5.838925,2.36462 10.79699,4.5181 6.25016,2.71469 10.251458,3.98131 14.277339,4.51952 1.3591,0.18169 1.517221,0.18819 3.915391,0.16087 1.430047,-0.0163 2.519862,-0.0683 3.075856,-0.14663 z m -4.499635,-1.44415 c -1.114815,-0.043 -2.414126,-0.18447 -3.894605,-0.42411 -3.686931,-0.5968 -7.630296,-1.89524 -13.625785,-4.4866 -4.364372,-1.88637 -4.631551,-1.9981 -8.463574,-3.53951 -1.544404,-0.62123 -2.932589,-1.18575 -3.084854,-1.25451 -0.152265,-0.0688 -0.775169,-0.33678 -1.38423,-0.59562 -4.455965,-1.89373 -8.105803,-3.95467 -10.75744,-6.07436 -1.03781,-0.82963 -2.731752,-2.46384 -3.634161,-3.50603 -2.224717,-2.56933 -4.257138,-5.9066 -6.093726,-10.006 -0.945262,-2.1099 -1.190528,-2.69942 -3.323769,-7.98899 -0.491259,-1.21812 -1.238314,-3.01563 -1.660121,-3.99448 -1.848895,-4.29055 -2.193944,-5.10847 -2.769618,-6.56521 -2.253961,-5.70363 -3.210612,-9.98992 -3.213024,-14.39599 -0.0011,-2.01312 0.0717,-2.89958 0.408043,-4.96833 0.62316,-3.83289 1.769177,-7.30514 4.513722,-13.67585 1.220839,-2.83383 2.346084,-5.52226 3.237617,-7.73528 0.93236,-2.31436 1.815535,-4.4642 2.112149,-5.14142 0.777073,-1.77419 1.294966,-2.88601 1.879086,-4.03404 4.01948,-7.89985 8.36681,-12.03642 16.849179,-16.03232 2.107269,-0.99271 2.763584,-1.27068 7.672586,-3.24972 2.639187,-1.06397 4.286069,-1.75313 7.514389,-3.14445 3.766941,-1.62345 5.340336,-2.24202 7.672586,-3.01637 2.657701,-0.88241 4.501855,-1.3193 7.499907,-1.77676 1.086853,-0.16585 4.816512,-0.2379 6.004195,-0.116 3.467109,0.35582 6.874912,1.19006 10.581492,2.59031 1.19596,0.45182 2.91483,1.13368 3.55945,1.41203 0.32628,0.14088 1.07376,0.46166 1.66108,0.71282 1.23495,0.52813 1.81815,0.77841 3.40125,1.45963 1.18358,0.50932 2.10335,0.88648 5.89286,2.41648 3.29766,1.33142 3.26877,1.31929 5.22052,2.1917 7.55277,3.37599 12.06637,6.9507 15.56428,12.32671 1.51263,2.32478 3.33395,5.89015 4.68416,9.16962 0.33527,0.81434 1.29608,3.18293 2.19788,5.41827 0.75695,1.87626 1.24039,3.02128 2.78863,6.60475 2.59074,5.9964 3.82538,9.72184 4.46113,13.46112 0.36365,2.13886 0.42667,2.88437 0.42667,5.04801 0,2.1652 -0.0626,2.90499 -0.42853,5.06232 -0.62613,3.69159 -1.86611,7.4375 -4.42504,13.3677 -0.2722,0.63081 -0.60958,1.4139 -0.74973,1.74018 -0.14015,0.32628 -0.47467,1.10427 -0.74337,1.72884 -0.2687,0.62458 -0.554,1.30088 -0.63402,1.50288 -0.08,0.202 -0.44786,1.11475 -0.81744,2.02835 -0.36956,0.91359 -0.89376,2.21279 -1.16488,2.88711 -2.00282,4.98128 -4.01698,9.04681 -5.79974,11.70662 -3.67178,5.47817 -8.35337,9.02052 -16.58603,12.54991 -1.87321,0.80307 -4.14639,1.73644 -5.65556,2.3222 -0.30454,0.1182 -0.96304,0.38367 -1.46334,0.58993 -2.40508,0.99156 -2.79991,1.15823 -4.31088,1.81992 -7.29875,3.19626 -11.16345,4.51199 -15.199843,5.17481 -2.086372,0.34261 -4.199763,0.49603 -5.919551,0.42973 z m 3.322151,-3.1216 c 4.303117,-0.3711 8.164093,-1.59555 16.808513,-5.33057 2.53156,-1.09383 2.5377,-1.09638 5.8533,-2.43342 4.98937,-2.01199 6.40544,-2.62124 8.50313,-3.65843 6.5719,-3.24943 9.88936,-6.20096 13.2442,-11.78327 0.56021,-0.93218 2.27687,-4.33102 2.77657,-5.49738 0.13978,-0.32628 0.37653,-0.87799 0.52609,-1.22603 0.37888,-0.88164 0.94275,-2.25936 2.18519,-5.33917 1.05382,-2.61226 1.248,-3.07624 2.46622,-5.89286 2.36044,-5.45756 3.42808,-8.30788 4.1926,-11.19315 0.85065,-3.21036 1.20361,-6.45145 0.99485,-9.13525 -0.28562,-3.67188 -1.29359,-7.48611 -3.27134,-12.37897 -0.56924,-1.40828 -0.86893,-2.11513 -2.5487,-6.01151 -0.42199,-0.97885 -1.27623,-3.04332 -1.8983,-4.58773 -0.62208,-1.5444 -1.31656,-3.25294 -1.54329,-3.79675 -0.22674,-0.5438 -0.49262,-1.1845 -0.59084,-1.42377 -1.0226,-2.49104 -2.6456,-5.68022 -3.90463,-7.67258 -2.91579,-4.61411 -6.06353,-7.39707 -11.66595,-10.31405 -1.89959,-0.98904 -4.09374,-1.96243 -7.68607,-3.40977 -4.70772,-1.89671 -5.50789,-2.22855 -8.30538,-3.4443 -7.00186,-3.04292 -10.709463,-4.27846 -14.633286,-4.87646 -1.310598,-0.19975 -1.612414,-0.21711 -3.796744,-0.21843 -2.06943,-10e-4 -2.528511,0.0217 -3.589001,0.17941 -2.013611,0.29942 -3.43246,0.62282 -5.467813,1.24626 -2.638697,0.80825 -4.500285,1.53895 -10.361947,4.06718 -1.239874,0.53477 -2.450086,1.05197 -2.68936,1.14932 -0.239274,0.0973 -1.80543,0.72946 -3.480348,1.4047 -6.835843,2.75588 -9.639437,4.1064 -12.714121,6.12453 -4.80997,3.15713 -8.065998,7.37805 -11.207719,14.529 -0.770651,1.75411 -1.085071,2.51321 -2.919653,7.04895 -1.035566,2.56029 -1.341185,3.289 -2.421682,5.77421 -2.251439,5.17847 -3.424279,8.35371 -4.148784,11.23204 -0.656963,2.61001 -0.93807,4.73144 -0.93807,7.07935 0,4.85488 1.206883,9.31232 4.733072,17.48084 1.624207,3.76252 2.742373,6.43863 3.354583,8.02853 0.289208,0.75106 1.182456,2.92784 1.700957,4.1451 0.809444,1.90028 0.973748,2.26779 1.535069,3.43366 3.408987,7.08049 6.952396,10.92277 13.178544,14.29012 1.650937,0.89289 3.575374,1.81744 5.260072,2.52708 0.326282,0.13743 0.717821,0.30595 0.870087,0.37446 0.152265,0.0685 1.629436,0.6691 3.282601,1.33462 3.413849,1.37433 5.207112,2.12084 7.870334,3.27631 5.278887,2.29034 8.228815,3.36795 11.271582,4.11754 3.337542,0.8222 6.033693,1.05159 9.175464,0.78064 z m -5.101874,-1.89929 c -1.163548,-0.11906 -3.772133,-0.611 -5.014609,-0.94566 -3.069045,-0.82668 -5.144386,-1.59572 -10.805156,-4.00399 -1.654604,-0.70392 -1.880516,-0.79867 -3.243053,-1.36016 -0.761326,-0.31372 -1.63339,-0.67379 -1.93792,-0.80014 -0.304531,-0.12635 -1.265582,-0.52045 -2.135669,-0.87576 -4.900841,-2.00139 -7.697398,-3.37788 -10.401495,-5.11972 -4.991954,-3.21555 -8.254034,-7.15908 -11.36398,-13.73789 -0.986013,-2.08583 -1.65741,-3.66608 -3.545482,-8.34493 -0.272109,-0.67431 -0.762005,-1.84893 -1.088659,-2.61026 -2.405558,-5.60661 -3.195811,-7.60207 -3.97473,-10.03654 -0.741712,-2.31819 -1.264875,-4.59633 -1.555145,-6.77196 -0.143516,-1.07568 -0.143516,-5.48953 0,-6.56521 0.56665,-4.24714 1.685018,-7.79792 4.621424,-14.67283 1.320279,-3.09112 1.476694,-3.46215 1.917366,-4.54818 2.024639,-4.98969 2.230916,-5.48207 3.181196,-7.59349 0.528371,-1.17398 1.678041,-3.44949 2.197997,-4.35043 2.886028,-5.0007 5.837063,-8.05099 10.598748,-10.95521 1.742403,-1.06272 5.884309,-3.09396 7.988982,-3.91789 0.261025,-0.10213 0.81274,-0.32581 1.226031,-0.49696 0.413291,-0.17113 1.498923,-0.61541 2.412515,-0.98729 2.022378,-0.82322 2.77056,-1.13467 4.508633,-1.87686 3.42789,-1.46379 4.017059,-1.70984 5.418269,-2.26285 4.030034,-1.59051 7.595241,-2.54679 10.876089,-2.91723 1.943919,-0.21948 5.18369,-0.1436 7.039795,0.16489 4.55904,0.75774 7.83779,1.87409 16.29436,5.54789 0.57607,0.25026 1.56949,0.65762 4.62729,1.89744 3.7513,1.52101 6.039,2.55193 8.18672,3.68928 7.28573,3.85818 11.21322,8.25872 15.04827,16.86071 0.79906,1.79229 1.28987,2.96807 2.92218,7.00025 0.23776,0.58731 0.98503,2.36703 1.66062,3.95495 1.4664,3.44665 1.6571,3.90303 2.08228,4.98322 2.36396,6.00574 3.27571,10.64095 3.00672,15.28585 -0.24325,4.20018 -1.22499,7.88304 -3.75853,14.09937 -0.14184,0.34803 -0.74578,1.77181 -1.34207,3.16395 -0.5963,1.39214 -1.41636,3.34983 -1.82236,4.35043 -0.406,1.0006 -0.95855,2.35319 -1.22789,3.00576 -0.26934,0.65257 -0.56963,1.38225 -0.66731,1.62153 -0.38555,0.94441 -1.58247,3.56233 -2.07653,4.54181 -3.09281,6.13146 -6.48299,9.92114 -11.66571,13.04042 -2.63829,1.58787 -5.33111,2.87135 -10.03,4.78059 -4.01107,1.62976 -4.39752,1.79012 -7.27709,3.01948 -3.21755,1.37366 -3.64767,1.54925 -5.41828,2.21191 -3.64787,1.36527 -6.678921,2.14456 -9.728915,2.50134 -1.131805,0.1324 -4.560474,0.15055 -5.734902,0.0304 z m 6.367454,-2.90353 c 3.847018,-0.59945 6.954353,-1.6263 13.921393,-4.60045 2.31392,-0.98778 2.93073,-1.24423 5.73416,-2.38418 7.61149,-3.09502 10.76758,-4.73998 14.00274,-7.29826 0.76728,-0.60675 2.84618,-2.68691 3.44557,-3.44764 0.84739,-1.07552 1.00622,-1.29564 1.65517,-2.29387 1.65871,-2.55151 2.89416,-5.02533 4.77981,-9.57096 0.75365,-1.81679 0.86462,-2.08703 1.59155,-3.87584 0.39777,-0.97885 1.08876,-2.63399 1.53553,-3.6781 2.0559,-4.80473 2.59161,-6.16691 3.35651,-8.53486 1.15458,-3.57425 1.61348,-6.20368 1.6165,-9.26237 0.004,-4.58065 -1.03356,-8.57578 -4.12085,-15.85932 -0.41491,-0.97885 -0.90535,-2.13567 -1.08988,-2.57071 -0.55818,-1.31602 -1.32276,-3.16302 -1.93187,-4.66684 -2.50545,-6.18556 -3.9087,-9.10061 -5.72422,-11.89125 -1.93844,-2.97961 -4.21649,-5.27599 -7.21168,-7.26972 -2.80148,-1.8648 -5.78197,-3.29921 -12.53716,-6.03371 -2.05603,-0.83227 -2.4436,-0.99384 -4.74594,-1.97835 -7.01339,-2.99902 -9.584369,-3.87854 -13.537706,-4.63122 -1.825887,-0.34763 -4.913279,-0.45043 -6.970568,-0.23209 -1.249953,0.13265 -3.492617,0.56606 -4.763795,0.92065 -2.704033,0.75427 -5.075134,1.64366 -10.124649,3.79773 -2.350507,1.00269 -2.748072,1.16933 -4.310887,1.80684 -0.543804,0.22183 -1.237896,0.5063 -1.542427,0.63214 -0.30453,0.12585 -1.296738,0.53489 -2.204908,0.90897 -9.818146,4.04418 -13.996242,7.24751 -17.703668,13.57329 -1.426094,2.43326 -2.67237,5.14264 -4.891522,10.63403 -0.641081,1.58638 -1.541536,3.745 -2.408679,5.77421 -1.872876,4.38274 -2.63072,6.36847 -3.32188,8.70413 -0.9427,3.18569 -1.305097,5.50199 -1.305097,8.34167 0,3.96724 0.82025,7.61203 2.901488,12.8928 0.507712,1.28822 0.646032,1.62168 1.607905,3.87615 0.985998,2.31102 1.605313,3.78599 2.108978,5.02277 0.283466,0.69607 0.703785,1.72832 0.934043,2.29387 2.258877,5.54823 3.65492,8.38972 5.429046,11.05023 1.106029,1.65862 1.825179,2.54028 3.18805,3.90846 0.611633,0.61402 1.485127,1.41109 1.941098,1.77127 0.807104,0.63755 2.8546,2.0146 3.934671,2.64629 0.749637,0.43843 3.721609,1.92965 4.530404,2.27319 0.369787,0.15706 1.224054,0.52231 1.898372,0.81166 1.51749,0.65115 1.889703,0.80541 4.113139,1.70465 1.905262,0.77055 4.253968,1.74955 5.220522,2.17604 3.86521,1.70549 7.275747,2.98245 10.006001,3.74637 1.125107,0.31479 3.352185,0.76649 4.310886,0.87433 0.413291,0.0465 0.87602,0.0987 1.028285,0.11603 0.152266,0.0174 1.255694,0.0204 2.452063,0.007 1.697662,-0.0192 2.400973,-0.0598 3.203502,-0.18489 z m -5.892861,-1.95928 c -2.703829,-0.23844 -6.083886,-1.06887 -9.570958,-2.35143 -0.837265,-0.30794 -3.60479,-1.42404 -4.943677,-1.9937 -1.98638,-0.84514 -3.574872,-1.50794 -5.299621,-2.21127 -1.908767,-0.77837 -2.766864,-1.13953 -3.757195,-1.58134 -0.456795,-0.20378 -1.044105,-0.45979 -1.30513,-0.5689 -0.894827,-0.37403 -3.63178,-1.79626 -4.742512,-2.4644 -2.409716,-1.44952 -3.933513,-2.61804 -5.625907,-4.31422 -1.771932,-1.7759 -3.053586,-3.46629 -4.504892,-5.94156 -0.657095,-1.12071 -2.242648,-4.26427 -2.67303,-5.29962 -0.108504,-0.26103 -0.379904,-0.90173 -0.603108,-1.42378 -0.223205,-0.52206 -0.764003,-1.82125 -1.201773,-2.88711 -0.437772,-1.06586 -1.134751,-2.7388 -1.548843,-3.71764 -3.0217,-7.1428 -3.954836,-9.87827 -4.642362,-13.609 -0.306491,-1.66312 -0.452206,-4.09964 -0.354944,-5.93511 0.240354,-4.53586 1.384358,-8.55349 4.503276,-15.81502 0.270482,-0.62975 0.571937,-1.34075 0.669901,-1.58003 0.09796,-0.23927 0.649468,-1.57406 1.225566,-2.9662 1.012987,-2.44789 1.366432,-3.29384 1.900258,-4.54819 0.479898,-1.12762 1.950724,-4.07741 2.563617,-5.14143 1.473167,-2.55746 2.811549,-4.34536 4.593708,-6.13659 1.562456,-1.5704 2.992513,-2.71126 4.864578,-3.88082 1.320316,-0.82487 1.663848,-1.0208 3.030309,-1.72837 1.74654,-0.90437 4.494026,-2.1458 6.738396,-3.04469 0.64906,-0.25995 1.968332,-0.80184 3.084854,-1.26708 0.435043,-0.18129 1.075744,-0.44803 1.423779,-0.59278 0.348034,-0.14473 1.059924,-0.44618 1.581976,-0.66989 5.945542,-2.54766 9.761729,-3.74679 13.644548,-4.28738 1.010734,-0.14072 5.544179,-0.14154 6.525653,-10e-4 3.963111,0.56678 7.366667,1.63867 13.604997,4.28464 1.5507,0.65773 3.19855,1.3428 5.33918,2.21972 6.06987,2.48655 9.20561,4.07274 12.02302,6.08175 1.40067,0.99877 1.96661,1.48319 3.32491,2.84592 1.39818,1.40275 2.28576,2.48051 3.29545,4.00153 2.04377,3.07881 3.39462,5.88559 6.47172,13.4468 0.28904,0.71023 0.62729,1.51654 1.46003,3.48035 1.96494,4.63381 2.96453,7.50784 3.60835,10.37478 0.60319,2.68603 0.82945,5.24046 0.67669,7.63997 -0.28981,4.55211 -1.40717,8.416 -4.5805,15.83955 -0.26036,0.60905 -0.65881,1.55231 -0.88546,2.09611 -0.22664,0.54381 -0.55151,1.31912 -0.72193,1.72292 -0.17041,0.40379 -0.30984,0.75116 -0.30984,0.77194 0,0.0399 -0.29424,0.74605 -1.20164,2.88387 -2.19952,5.18208 -4.21693,8.72213 -6.44173,11.30365 -3.26093,3.78377 -7.11438,6.3169 -14.10882,9.27466 -1.67249,0.70726 -2.23235,0.94024 -4.15268,1.72809 -0.61458,0.25214 -2.7372,1.14271 -3.71765,1.55979 -6.09169,2.59132 -9.46243,3.66595 -13.367703,4.26172 -0.761246,0.11613 -5.019402,0.21799 -5.892861,0.14096 z m 3.582876,-2.48262 c 4.002914,-0.2593 7.832418,-1.35998 14.372558,-4.13098 1.28233,-0.54331 4.77324,-1.99383 6.72341,-2.79365 0.5003,-0.20519 1.22113,-0.51082 1.60186,-0.67918 0.38072,-0.16836 0.71117,-0.30611 0.73433,-0.30611 0.10507,0 3.19099,-1.4748 4.14991,-1.98329 5.64531,-2.99359 8.70708,-6.02818 11.68586,-11.58216 1.19535,-2.22873 2.28214,-4.67522 4.40977,-9.92689 0.16898,-0.41709 0.71127,-1.70358 1.28368,-3.04531 2.63045,-6.16582 3.73379,-9.69876 4.22414,-13.5259 0.12782,-0.99766 0.13019,-4.10655 0.004,-5.10187 -0.43125,-3.39843 -1.51069,-7.08143 -3.37309,-11.50888 -1.80445,-4.28971 -2.62979,-6.27 -4.03838,-9.68962 -2.40914,-5.84858 -5.00984,-9.9795 -7.9866,-12.68578 -2.31884,-2.10813 -5.50309,-4.06403 -9.41588,-5.78359 -0.56384,-0.24779 -1.29212,-0.56776 -1.6184,-0.71105 -0.88389,-0.38816 -2.13783,-0.91613 -2.45207,-1.03243 -0.15227,-0.0564 -0.75737,-0.30357 -1.34468,-0.54936 -0.5873,-0.24579 -1.2814,-0.53089 -1.54243,-0.63354 -0.26102,-0.10266 -0.90172,-0.37034 -1.42377,-0.59486 -6.56235,-2.8222 -10.110688,-4.0151 -13.511357,-4.54232 -5.517916,-0.85548 -10.534162,0.0858 -18.523677,3.47585 -2.595628,1.10136 -3.993702,1.68601 -5.576467,2.33201 -0.978848,0.39949 -1.975493,0.81044 -2.214767,0.91318 -0.239274,0.10276 -0.933366,0.39962 -1.542427,0.65969 -5.205097,2.22263 -8.298567,4.04602 -11.013034,6.49142 -2.757057,2.48378 -5.303358,6.45497 -7.610829,11.8698 -0.268814,0.63081 -0.572441,1.34271 -0.674727,1.58198 -0.102286,0.23926 -0.513111,1.23591 -0.912946,2.21476 -0.399834,0.97885 -1.065071,2.5806 -1.478305,3.55945 -0.848648,2.01024 -1.668364,3.97875 -1.877462,4.50864 -3.145866,7.97212 -3.659286,12.89474 -2.012964,19.30011 0.62927,2.4483 1.641816,5.22841 3.471448,9.53141 0.221976,0.52205 0.743161,1.76786 1.158189,2.76845 0.415029,1.0006 0.969492,2.3354 1.232143,2.96621 0.262649,0.63082 0.556339,1.34271 0.652644,1.58197 0.451145,1.1209 1.257111,2.87925 2.030334,4.42955 2.413716,4.83942 4.833332,7.83778 8.3525,10.35033 1.627044,1.16164 4.755947,2.9115 6.730406,3.76402 0.334357,0.14437 1.070651,0.46545 1.636207,0.71353 0.876174,0.38431 3.338827,1.41169 5.695117,2.37591 0.643749,0.26344 1.445583,0.59967 3.005754,1.26043 7.104972,3.00906 11.035467,4.07988 15.50337,4.2237 0.174018,0.005 0.843059,-0.024 1.486758,-0.0656 z m -2.198647,-2.34253 c -2.642303,-0.14693 -4.80668,-0.53286 -7.44563,-1.32765 -2.359982,-0.71076 -3.763821,-1.2407 -8.255487,-3.11641 -0.413291,-0.17258 -1.285355,-0.53443 -1.937921,-0.8041 -1.843135,-0.76167 -3.030903,-1.26082 -3.678095,-1.54569 -0.326283,-0.14362 -1.055074,-0.46409 -1.619536,-0.71216 -1.371473,-0.60272 -2.84829,-1.3467 -4.194228,-2.11292 -4.861647,-2.76764 -7.791689,-5.70906 -10.619607,-10.66083 -0.908919,-1.59156 -2.783234,-5.60267 -3.640692,-7.79124 -0.139134,-0.35513 -1.171632,-2.83808 -1.77617,-4.27134 -2.808107,-6.65755 -3.799902,-10.16687 -4.098252,-14.50104 -0.240348,-3.49156 0.432506,-7.43472 2.05512,-12.04375 0.834913,-2.37157 4.73595,-11.75433 5.916629,-14.23066 3.985729,-8.35957 8.121989,-12.21365 17.462594,-16.27122 1.185102,-0.5148 2.105292,-0.9008 4.092989,-1.7169 0.359117,-0.14745 1.133465,-0.47062 1.720774,-0.71817 6.375255,-2.68706 9.395731,-3.68853 12.853558,-4.26173 2.925239,-0.48491 6.474531,-0.38466 9.531409,0.26925 1.867603,0.39949 4.92223,1.30516 6.09061,1.80579 0.10876,0.0466 0.87404,0.35109 1.70062,0.67665 0.82659,0.32556 1.89442,0.75757 2.37297,0.96002 0.99057,0.41906 1.38663,0.58376 2.61026,1.08544 5.36844,2.20099 7.97346,3.40918 10.28092,4.76822 6.12063,3.60489 9.31513,7.63307 13.10662,16.52706 0.20263,0.47534 1.36618,3.26919 1.9271,4.62728 0.0989,0.23928 0.32977,0.79099 0.5132,1.22603 3.21378,7.62233 4.33045,12.08807 4.16346,16.65031 -0.16063,4.38828 -1.20655,8.21343 -4.16346,15.22652 -0.18343,0.43504 -0.41436,0.98676 -0.5132,1.22603 -1.29693,3.14008 -1.99283,4.79529 -2.47751,5.89287 -3.8762,8.77761 -7.47048,12.76927 -14.87526,16.51982 -1.31773,0.66744 -2.06738,1.01373 -4.12557,1.90576 -0.32628,0.1414 -0.823,0.3568 -1.10382,0.47865 -0.28082,0.12186 -0.80585,0.34086 -1.16671,0.48669 -0.88143,0.35618 -1.80108,0.73558 -2.73247,1.12728 -0.42417,0.17838 -1.11826,0.47033 -1.54244,0.64879 -3.76812,1.58524 -7.187987,2.78397 -9.116134,3.19538 -2.012873,0.42949 -2.530717,0.51941 -3.598996,0.62496 -1.294013,0.12787 -2.96933,0.19862 -3.717645,0.15701 z m 4.231787,-2.51948 c 0.456796,-0.0721 1.382252,-0.25424 2.056569,-0.40456 2.680963,-0.59766 5.453799,-1.57583 10.401499,-3.66936 0.39154,-0.16568 1.42377,-0.59392 2.29386,-0.95166 5.481,-2.25355 8.18484,-3.56987 10.6388,-5.17938 4.7517,-3.11654 7.53278,-6.89105 10.81202,-14.67423 0.28411,-0.67431 0.61598,-1.45739 0.73747,-1.74017 0.1215,-0.28277 0.38834,-0.92347 0.59298,-1.42377 0.31947,-0.78103 0.81544,-1.97566 1.85539,-4.46909 2.48869,-5.9669 3.52781,-10.8212 3.16634,-14.79148 -0.36565,-4.01594 -1.22769,-6.9023 -4.15778,-13.92139 -0.50849,-1.21813 -0.99411,-2.39274 -1.07913,-2.61027 -0.085,-0.21752 -0.25452,-0.62685 -0.37666,-0.90963 -0.12212,-0.28278 -0.4545,-1.06585 -0.73861,-1.74017 -3.47452,-8.24665 -6.46956,-12.11285 -11.87985,-15.3353 -1.18324,-0.70476 -3.4231,-1.87398 -4.54819,-2.3742 -1.21007,-0.538 -2.97235,-1.2917 -4.54818,-1.94518 -1.01927,-0.42269 -1.7933,-0.74552 -3.32215,-1.38562 -6.27523,-2.62728 -9.596024,-3.6298 -13.117897,-3.96016 -1.253759,-0.11761 -4.193841,-0.054 -5.319408,0.11518 -3.41238,0.51274 -6.521842,1.53646 -13.123131,4.32048 -0.435044,0.18347 -1.075744,0.44975 -1.423779,0.59173 -6.621473,2.70112 -9.785839,4.33083 -12.6548,6.51742 -0.978549,0.7458 -2.901029,2.64434 -3.693389,3.64739 -2.145818,2.71638 -4.021343,6.30342 -6.513851,12.45806 -0.140948,0.34804 -0.398779,0.97094 -0.572961,1.38423 -3.466871,8.2261 -4.387756,11.28321 -4.688511,15.56467 -0.30683,4.36794 0.912956,9.18217 4.353472,17.18225 0.121612,0.28278 0.566537,1.35061 0.988723,2.37296 2.272797,5.50374 3.526191,8.04641 5.205338,10.55969 1.671873,2.50241 3.605154,4.47185 6.0671,6.1806 0.619163,0.42974 0.999518,0.66925 2.346979,1.4779 0.974061,0.58457 4.764791,2.40759 6.195695,2.9796 0.195769,0.0783 0.694092,0.28442 1.107383,0.4581 0.413291,0.17369 1.481125,0.61832 2.372964,0.98805 0.89184,0.36973 2.17324,0.90335 2.847558,1.18582 5.323445,2.22993 8.752172,3.25793 12.062571,3.6166 1.027794,0.11136 4.694878,0.0367 5.655566,-0.11511 z m -4.956724,-2.42042 c -3.369485,-0.25935 -7.081781,-1.24999 -11.535381,-3.07824 -0.30453,-0.12502 -0.856245,-0.3515 -1.226032,-0.50329 -5.534849,-2.27205 -8.183782,-3.46542 -10.0851,-4.54342 -6.632096,-3.76024 -9.713488,-7.6136 -13.707695,-17.14182 -1.049066,-2.50255 -1.345311,-3.22218 -2.06771,-5.02278 -1.926794,-4.80257 -2.762652,-8.00946 -3.02568,-11.60845 -0.168345,-2.30345 0.13443,-5.13018 0.850351,-7.93893 0.714382,-2.80272 1.817839,-5.73158 4.71965,-12.52719 2.586846,-6.05801 4.966866,-9.71776 8.124805,-12.49347 2.659311,-2.33744 5.874307,-4.17496 11.284256,-6.44949 0.735027,-0.30903 1.621167,-0.68257 1.969202,-0.8301 0.348034,-0.14752 1.077721,-0.45066 1.621525,-0.67364 0.543806,-0.22299 1.237898,-0.50811 1.542428,-0.63359 5.695077,-2.34672 10.512751,-3.37732 14.449674,-3.0911 2.193286,0.15945 3.162752,0.3109 5.127285,0.80099 2.239514,0.55869 4.953684,1.51647 8.503124,3.00061 0.39154,0.16371 1.21021,0.50427 1.81928,0.75679 2.97608,1.23394 4.17221,1.76359 5.81376,2.57434 6.66046,3.28956 10.17525,6.74911 13.40152,13.19091 1.00169,2.00004 1.84359,3.91552 3.74239,8.51458 1.93958,4.69783 2.83077,7.51012 3.29973,10.41288 0.49062,3.03686 0.49068,5.00799 2.7e-4,8.04361 -0.46749,2.89374 -1.44189,5.95101 -3.39493,10.65188 -1.92952,4.64427 -2.41373,5.74563 -3.44273,7.83079 -1.80083,3.64914 -3.20653,5.74484 -5.29879,7.89969 -2.12914,2.19286 -4.63876,3.92671 -8.30746,5.7395 -1.39196,0.6878 -2.1677,1.03944 -4.15269,1.88249 -0.59355,0.2521 -0.97285,0.41079 -3.16395,1.32379 -6.45174,2.68832 -9.66802,3.6059 -13.723651,3.91523 -1.184393,0.0904 -1.938374,0.0897 -3.137451,-0.002 z m 3.040361,-2.05263 c 1.47526,-0.11254 3.548008,-0.4796 5.080316,-0.89966 2.424565,-0.66466 4.465075,-1.41828 9.175465,-3.38877 0.4133,-0.17289 0.94721,-0.39458 1.18648,-0.49266 0.89831,-0.36821 3.15086,-1.35974 4.15254,-1.82787 1.26719,-0.59223 3.22495,-1.67965 4.57691,-2.54223 2.66187,-1.69832 5.05589,-4.1671 6.86411,-7.07844 1.59155,-2.5625 2.55832,-4.62547 5.41523,-11.55555 1.93557,-4.69514 2.8345,-7.65029 3.24645,-10.67246 0.18213,-1.33618 0.18108,-4.17383 -0.002,-5.51995 -0.50128,-3.68458 -1.6672,-7.10218 -5.36999,-15.74066 -2.08382,-4.86148 -4.09472,-8.13698 -6.46467,-10.53008 -1.49398,-1.50857 -2.85786,-2.55417 -4.98323,-3.82029 -0.80928,-0.48212 -3.88849,-2.03524 -4.98441,-2.5141 -0.84119,-0.36754 -2.76272,-1.18353 -3.59782,-1.52782 -0.34803,-0.14349 -1.07771,-0.44544 -1.62152,-0.67102 -5.912109,-2.45242 -9.102648,-3.36141 -12.774461,-3.63942 -3.849241,-0.29145 -8.684143,0.80335 -14.514634,3.28663 -0.239274,0.10192 -0.879975,0.3684 -1.423779,0.59219 -3.871966,1.59341 -5.232532,2.19443 -7.277091,3.2146 -6.656835,3.32153 -9.958026,6.92392 -13.325657,14.54148 -0.816879,1.84777 -0.89802,2.03721 -1.626158,3.79674 -0.396072,0.9571 -0.803479,1.93595 -0.905348,2.17522 -1.84906,4.34313 -2.918168,7.86511 -3.320724,10.93946 -0.162736,1.24283 -0.163674,4.08144 -0.0018,5.31661 0.439672,3.354 1.393759,6.35711 3.995218,12.57546 0.400403,0.95708 0.8074,1.93594 0.904439,2.1752 0.401726,0.99058 1.445675,3.28163 2.000357,4.38999 0.826872,1.65225 1.273454,2.43649 2.122535,3.72736 3.157366,4.80018 6.665663,7.3179 15.147062,10.87021 7.552632,3.16332 9.987196,3.99535 13.296726,4.54427 2.049429,0.33993 3.292677,0.40804 5.029469,0.27556 z m -3.304159,-2.85834 c -1.975345,-0.18334 -4.408126,-0.70478 -6.644301,-1.42414 -1.842551,-0.59274 -4.770494,-1.745 -8.303165,-3.26764 -1.020241,-0.43973 -3.834602,-1.82153 -4.548837,-2.23339 -2.706804,-1.56086 -4.281741,-2.7498 -6.065435,-4.57885 -2.463068,-2.52572 -4.430197,-5.83769 -6.8548,-11.54114 -2.315036,-5.44571 -3.240761,-8.27597 -3.80314,-11.62753 -0.813968,-4.8509 -0.08123,-9.37842 2.598684,-16.05707 1.176459,-2.93186 2.056488,-4.94109 3.04872,-6.96069 3.730764,-7.59361 7.644948,-11.00179 17.224668,-14.99795 2.36744,-0.98757 2.725294,-1.13097 4.597848,-1.84247 4.532234,-1.72208 8.872994,-2.49648 12.269656,-2.18894 4.008205,0.36292 7.223352,1.31905 13.802752,4.1047 1.62509,0.68805 1.88853,0.80388 2.7289,1.19991 4.3742,2.06137 6.90185,3.74273 9.30441,6.18913 2.11382,2.15239 4.37981,5.77003 6.05783,9.67129 0.14969,0.34804 0.4333,1.00653 0.63022,1.46333 0.58554,1.35825 1.63446,3.95024 2.14465,5.29962 0.94597,2.50199 1.65305,5.23342 2.00668,7.75169 0.16029,1.14147 0.13745,4.54765 -0.0381,5.67434 -0.58774,3.77329 -1.64968,7.05412 -4.16718,12.87433 -0.22581,0.52205 -0.49987,1.16275 -0.60903,1.42378 -0.34923,0.83519 -1.65901,3.45114 -2.1822,4.35839 -3.01812,5.23367 -6.38063,8.21361 -12.59364,11.1608 -1.37464,0.65207 -2.33579,1.08148 -3.32214,1.48422 -0.34804,0.1421 -1.16671,0.47929 -1.81928,0.74932 -3.04335,1.25929 -5.1288,2.00047 -6.881599,2.44575 -0.348035,0.0885 -0.846357,0.21665 -1.107384,0.28499 -0.63782,0.16699 -2.722685,0.49302 -3.796744,0.59374 -1.00866,0.0946 -2.600759,0.0904 -3.678095,-0.009 z m 4.389984,-1.9239 c 2.711875,-0.30393 5.781686,-1.20091 9.887356,-2.88903 2.69665,-1.10877 2.98042,-1.22958 4.50863,-1.9195 7.96566,-3.59614 11.38614,-7.08778 15.0117,-15.32399 2.6816,-6.09181 3.9404,-9.79663 4.44793,-13.09087 0.82351,-5.34521 -0.19485,-9.80774 -4.44949,-19.49786 -2.30721,-5.2548 -4.59781,-8.56242 -7.62413,-11.00925 -2.48792,-2.01152 -5.57731,-3.63062 -11.89464,-6.23378 -3.60956,-1.48737 -6.741955,-2.44231 -9.233066,-2.81474 -1.136936,-0.16999 -3.920767,-0.23476 -5.173543,-0.12038 -3.159048,0.28844 -6.265119,1.23161 -12.210149,3.70766 -5.572965,2.32109 -8.922818,4.28525 -11.339816,6.649 -2.639326,2.58118 -4.567995,5.69858 -6.810421,11.00798 -0.376669,0.89184 -0.776304,1.83204 -0.888079,2.08933 -0.111774,0.25729 -0.379229,0.91579 -0.594344,1.46333 -1.714612,4.36425 -2.444915,7.18099 -2.68178,10.34347 -0.197304,2.63428 0.266638,5.70898 1.388306,9.20073 1.175852,3.66043 3.994543,10.17109 5.607838,12.95307 2.690785,4.64003 5.742298,7.33173 11.442455,10.09327 0.848335,0.41099 1.755993,0.83598 2.01702,0.94442 0.261025,0.10845 0.866132,0.36367 1.344679,0.56714 4.954064,2.10649 7.745906,3.05537 10.832367,3.68171 1.529511,0.31038 4.571568,0.40447 6.411177,0.19829 z m -4.548182,-2.97959 c -1.124475,-0.11637 -3.298545,-0.52466 -4.388093,-0.82408 -3.010621,-0.82733 -6.908156,-2.36429 -10.126541,-3.99329 -3.153688,-1.59627 -5.18227,-3.00376 -7.119556,-4.93979 -2.641376,-2.63964 -4.548613,-5.79347 -6.864223,-11.35072 -1.504104,-3.60971 -2.37513,-6.55714 -2.79335,-9.4523 -0.189141,-1.30934 -0.191722,-4.36274 -0.0048,-5.7177 0.517415,-3.75134 2.108549,-8.43154 4.563854,-13.42423 3.644276,-7.41036 7.666873,-10.79653 17.478179,-14.7129 4.125795,-1.64689 7.426272,-2.43296 10.678342,-2.54327 3.355477,-0.11381 7.024251,0.62895 11.311126,2.28999 2.27688,0.88223 3.6134,1.46372 5.49737,2.39182 5.74578,2.83049 8.78087,5.63618 11.76279,10.87374 0.34011,0.59735 1.47886,2.89738 1.77463,3.58433 2.22672,5.17164 3.10829,7.92503 3.63894,11.36535 0.1993,1.29217 0.19911,4.72157 -3.5e-4,6.01151 -0.53352,3.45042 -1.38398,6.10444 -3.6499,11.39024 -0.38873,0.90682 -1.49731,3.10119 -2.05793,4.07359 -2.33728,4.05393 -5.04988,6.77532 -9.08569,9.11509 -0.9579,0.55535 -3.68787,1.9194 -4.6368,2.31683 -3.57321,1.49648 -5.07909,2.04838 -7.237545,2.65251 -1.339361,0.37489 -3.41209,0.76663 -4.774085,0.9023 -0.956851,0.0953 -3.003258,0.0907 -3.966335,-0.009 z m 3.598996,-1.57301 c 1.592594,-0.13425 3.45537,-0.49642 5.299622,-1.03039 2.27112,-0.65755 6.03137,-2.16097 8.699,-3.47802 7.05797,-3.4846 10.254,-7.30644 13.98807,-16.72709 2.48357,-6.26577 2.97783,-10.62113 1.78625,-15.74066 -0.96622,-4.15134 -3.62435,-10.41665 -5.90337,-13.91445 -2.84105,-4.3604 -6.42553,-7.03324 -13.23078,-9.86577 -4.82415,-2.00795 -8.051419,-2.86565 -11.42978,-3.03765 -3.003805,-0.15293 -6.758612,0.62331 -11.034286,2.28115 -3.917722,1.51904 -6.517813,2.7948 -8.898617,4.36617 -4.21201,2.77999 -6.69556,6.08433 -9.512386,12.65616 -1.270141,2.96332 -2.079685,5.29858 -2.591232,7.47484 -0.366353,1.55856 -0.495969,2.42698 -0.581553,3.89636 -0.238415,4.09338 0.62641,7.88494 3.152632,13.82178 1.20148,2.82358 2.680907,5.63449 3.704668,7.03887 0.111371,0.15278 0.346355,0.47354 0.522188,0.71282 2.774288,3.77525 6.666805,6.34627 13.967004,9.22519 4.765918,1.87951 8.583475,2.61396 12.06257,2.32069 z m -3.32215,-3.29126 c -3.977763,-0.45343 -7.366942,-1.48626 -11.390231,-3.4711 -2.975821,-1.46809 -4.965961,-2.84319 -6.923093,-4.78352 -1.417466,-1.40531 -2.00992,-2.12259 -3.038031,-3.6781 -1.262356,-1.90993 -2.321392,-3.96008 -3.246867,-6.2855 -1.977733,-4.96942 -2.590636,-8.95053 -2.051313,-13.32431 0.350884,-2.84558 1.495712,-6.44172 3.14739,-9.88661 2.809286,-5.8593 6.275149,-9.38117 12.032815,-12.22729 3.625642,-1.79222 6.754114,-2.81533 10.322397,-3.37577 1.29078,-0.20273 4.562533,-0.20273 5.853313,0 3.440792,0.54041 6.508472,1.51999 9.926902,3.16987 4.55284,2.1974 7.56462,4.66158 10.01485,8.19396 2.20069,3.17264 4.2419,7.84726 5.1636,11.82527 0.82984,3.58153 0.80273,7.22507 -0.0806,10.82852 -1.00343,4.09348 -3.02129,8.61073 -5.25153,11.75628 -3.03198,4.27631 -7.20698,7.18876 -13.81123,9.63458 -1.882605,0.6972 -4.892827,1.40207 -6.786513,1.58912 -0.786871,0.0777 -3.306532,0.10013 -3.881879,0.0346 z m 3.093142,-1.37407 c 2.247324,-0.17657 3.973807,-0.52178 6.121871,-1.22403 5.136149,-1.67913 9.433839,-4.15937 12.113589,-6.99089 2.51645,-2.65897 4.57184,-6.21559 6.13131,-10.60956 1.55641,-4.3853 1.95104,-8.03314 1.28963,-11.92077 -0.5397,-3.17224 -2.01625,-7.26439 -3.73293,-10.34554 -2.57485,-4.62142 -5.63929,-7.51951 -10.50198,-9.93191 -5.02738,-2.49411 -9.850953,-3.67822 -13.842292,-3.39808 -1.929565,0.13544 -2.567796,0.23463 -4.350435,0.67618 -3.960802,0.98105 -8.425535,3.01943 -11.366135,5.18923 -2.905004,2.14354 -5.01257,4.73545 -6.905811,8.49286 -2.078287,4.12465 -3.202259,7.84333 -3.493566,11.5585 -0.30313,3.86597 0.815428,8.63622 3.169279,13.51583 2.702325,5.602 5.8703,8.85461 11.257624,11.55837 5.083571,2.55132 10.019676,3.75118 14.109846,3.42981 z m -3.345437,-3.55604 c -1.057525,-0.0784 -1.688166,-0.17726 -3.109406,-0.48778 -5.006572,-1.09389 -9.659532,-3.91178 -12.977804,-7.85951 -2.932944,-3.48931 -4.790341,-7.65499 -5.391433,-12.09163 -0.245639,-1.81304 -0.245397,-4.61663 5.54e-4,-6.43232 0.906363,-6.69111 4.70843,-12.74824 10.379703,-16.53605 2.847241,-1.90165 5.849817,-3.06941 9.610506,-3.7377 1.020217,-0.1813 3.534381,-0.26658 5.080565,-0.17235 5.28023,0.32181 10.173882,2.37171 14.235422,5.96305 4.15236,3.67167 6.88844,8.74792 7.70917,14.30284 0.15422,1.0438 0.18075,1.54252 0.18075,3.39854 0,1.85602 -0.0265,2.35473 -0.18075,3.39854 -1.13392,7.6747 -5.93794,14.34145 -12.82692,17.80047 -2.256329,1.13293 -4.943058,1.97484 -7.443396,2.33249 -0.991925,0.14189 -4.041411,0.21218 -5.266961,0.12141 z m 4.64228,-1.188 c 6.853417,-0.90082 12.558737,-4.44135 16.316507,-10.1255 0.79113,-1.19668 1.85765,-3.31197 2.33455,-4.63021 0.30923,-0.85481 0.78908,-2.57366 0.95975,-3.43786 0.60228,-3.0498 0.48342,-6.76169 -0.31564,-9.85739 -1.65184,-6.39944 -5.95562,-11.69899 -11.93189,-14.69254 -2.094654,-1.04922 -4.72887,-1.82621 -7.442377,-2.19521 -0.985214,-0.13396 -4.085354,-0.13322 -5.062324,0.001 -5.492237,0.75584 -9.985442,2.9763 -13.64672,6.74394 -1.624743,1.67194 -2.559814,2.95992 -3.896214,5.36668 -0.974708,1.75539 -1.993999,4.90224 -2.272044,7.0145 -0.416378,3.16314 -0.272667,6.06008 0.438771,8.84482 1.066068,4.17283 3.074446,7.6455 6.179989,10.68575 3.844517,3.76369 8.625986,5.90034 14.303602,6.39172 0.633351,0.0548 3.342316,-0.019 4.03404,-0.10993 z"
       id="path3" /><path
       style="fill:#482752;fill-opacity:1;stroke-width:0.869738"
       d="m 77.654371,472.45166 c -3.261035,-0.31411 -6.606928,-1.20342 -10.607135,-2.8193 -0.539564,-0.21794 -1.113465,-0.44862 -1.275334,-0.51262 -0.273748,-0.10821 -0.813229,-0.34125 -4.185717,-1.80817 -1.868892,-0.81288 -3.008471,-1.28515 -5.166742,-2.14122 -1.756616,-0.69674 -2.388652,-0.95155 -3.858707,-1.55564 -2.764807,-1.13617 -5.985004,-2.72239 -7.521208,-3.70485 -3.238866,-2.07136 -5.355695,-3.99906 -7.266316,-6.61713 -2.223299,-3.04651 -3.577438,-5.74515 -6.285653,-12.5266 -0.646564,-1.619 -1.292969,-3.2233 -1.436456,-3.56507 -0.346325,-0.82497 -0.92708,-2.18197 -1.245792,-2.91096 -3.395144,-7.7657 -4.313013,-10.59442 -4.903187,-15.11075 -0.115528,-0.88409 -0.115528,-4.54533 0,-5.42941 0.54571,-4.17607 1.543547,-7.39608 4.1353,-13.34455 1.686594,-3.87101 2.057554,-4.74887 2.880287,-6.8161 0.989921,-2.4873 1.736386,-4.32803 2.090395,-5.15477 0.184871,-0.43174 0.406742,-0.95279 0.493048,-1.1579 0.475128,-1.1292 1.837232,-3.83434 2.467983,-4.90142 2.996462,-5.06929 6.360246,-8.1278 12.144277,-11.0422 1.903906,-0.95933 3.604122,-1.69319 7.815515,-3.37342 3.143442,-1.25414 3.874913,-1.55778 6.14777,-2.55202 2.376978,-1.03979 3.806598,-1.64685 5.003238,-2.12455 6.694065,-2.67222 11.41164,-3.38562 16.878721,-2.55245 2.413232,0.36777 5.545187,1.29595 8.726094,2.58606 1.823347,0.73951 1.823553,0.7396 4.316507,1.82721 3.116641,1.35968 3.800761,1.64279 8.306031,3.4372 0.82734,0.3295 1.69555,0.68084 1.92935,0.78071 0.23381,0.0999 0.71944,0.307 1.07913,0.46028 7.20221,3.06915 11.34464,6.26051 14.56454,11.22066 1.80767,2.78467 3.01761,5.34677 5.69951,12.06899 1.04464,2.61842 1.26918,3.16141 2.06921,5.0042 1.99863,4.60357 2.42596,5.63152 3.07283,7.39184 1.29081,3.51266 1.97827,6.59525 2.17001,9.73042 0.19024,3.11054 -0.3691,6.76853 -1.62288,10.6135 -0.6766,2.07494 -1.56814,4.27896 -3.7177,9.19073 -0.62769,1.43427 -0.67604,1.55168 -2.2897,5.56023 -0.73141,1.81689 -1.43748,3.55365 -1.56907,3.85947 -0.13157,0.30581 -0.3217,0.74736 -0.42251,0.98122 -1.90867,4.42771 -4.06275,7.86693 -6.50892,10.3922 -1.99877,2.06341 -4.26198,3.70253 -7.3904,5.35247 -2.09924,1.10714 -3.77095,1.84234 -8.63304,3.79678 -4.072991,1.63724 -4.176424,1.68003 -6.016959,2.48884 -1.877848,0.82522 -3.613285,1.56695 -4.676233,1.99864 -4.383474,1.78026 -7.701366,2.66882 -11.151012,2.98634 -0.841183,0.0775 -3.407006,0.0732 -4.239075,-0.007 z m 5.081859,-2.7659 c 2.892671,-0.40785 5.875301,-1.28787 9.719612,-2.86771 0.603483,-0.248 2.538229,-1.07972 4.610825,-1.98214 1.786806,-0.77798 2.103276,-0.9088 5.689953,-2.35209 4.35691,-1.75321 4.71468,-1.90387 6.42632,-2.70629 6.9574,-3.2616 10.3986,-6.61736 13.65804,-13.31903 0.84241,-1.73205 1.54169,-3.36949 3.0056,-7.03787 0.63793,-1.59853 1.4246,-3.52461 1.74815,-4.28014 0.62385,-1.45667 0.64433,-1.5041 1.68103,-3.89217 1.89553,-4.36636 2.89613,-7.2726 3.46343,-10.05954 0.35053,-1.72201 0.47978,-2.99183 0.48087,-4.72413 8.3e-4,-1.72779 -0.12696,-2.98556 -0.48087,-4.72415 -0.64726,-3.1797 -1.67115,-6.01994 -4.39283,-12.1855 -0.14295,-0.32381 -0.32728,-0.75064 -0.40965,-0.94851 -0.0824,-0.19788 -0.28808,-0.6836 -0.45716,-1.07935 -0.16907,-0.39576 -0.90449,-2.20611 -1.63426,-4.02299 -1.63311,-4.06592 -2.14995,-5.27544 -3.00484,-7.03206 -3.25851,-6.69549 -6.67358,-10.03117 -13.60904,-13.29268 -1.50867,-0.70947 -3.33292,-1.47852 -6.60558,-2.78469 -2.720024,-1.08562 -4.204353,-1.70472 -6.703692,-2.79609 -6.44858,-2.81584 -9.414777,-3.79221 -13.243871,-4.35942 -1.118015,-0.16561 -4.482653,-0.16608 -5.656384,-7.8e-4 -2.649988,0.37321 -5.552635,1.18466 -8.699311,2.43195 -0.847361,0.33588 -3.489024,1.45609 -5.166743,2.191 -0.341724,0.14968 -0.930341,0.40471 -1.308037,0.56673 -1.776759,0.76217 -1.905122,0.81463 -6.115069,2.49926 -5.119864,2.04874 -7.354163,3.13501 -10.002477,4.86303 -3.52844,2.30232 -5.882241,4.97059 -8.165947,9.25693 -0.489223,0.91825 -1.330139,2.65834 -1.684303,3.48532 -0.703166,1.64189 -0.949,2.23945 -1.735799,4.21923 -0.486141,1.22325 -0.968954,2.43015 -1.072918,2.682 -0.796667,1.92987 -1.04439,2.51786 -1.570862,3.72863 -1.409205,3.24084 -2.186447,5.07392 -2.537869,5.98542 -1.024131,2.65633 -1.58938,4.49312 -2.002999,6.50879 -0.41268,2.01109 -0.459792,2.51373 -0.456786,4.87334 0.0023,1.86219 0.02069,2.24159 0.14762,3.0578 0.55235,3.55182 1.632163,6.84321 4.0508,12.34731 0.683192,1.55475 1.241982,2.84942 1.778699,4.12112 0.13666,0.32381 0.653038,1.60429 1.147509,2.84554 1.975098,4.95797 2.850773,6.95545 3.943083,8.99449 2.806903,5.23972 5.709184,8.12146 11.000564,10.92273 1.912581,1.01252 3.79627,1.84476 7.652199,3.38085 3.228728,1.28624 4.827837,1.95553 8.927347,3.73646 5.16786,2.24504 8.47628,3.29254 11.805026,3.73764 1.123754,0.15024 1.254494,0.15562 3.237389,0.13302 1.182415,-0.0135 2.083514,-0.0565 2.543231,-0.12126 z m -3.720463,-1.1943 c -0.921771,-0.0356 -1.996088,-0.15256 -3.220203,-0.35073 -3.048489,-0.49357 -6.309008,-1.56737 -11.266298,-3.71041 -3.608622,-1.56003 -3.829536,-1.65243 -6.997992,-2.92717 -1.276971,-0.51375 -2.424772,-0.98061 -2.550671,-1.03748 -0.125898,-0.0569 -0.640938,-0.27852 -1.144532,-0.49257 -3.684355,-1.56611 -6.702175,-3.2705 -8.894644,-5.02348 -0.858101,-0.6861 -2.258713,-2.03759 -3.004859,-2.89947 -1.839477,-2.12484 -3.519957,-4.88475 -5.038515,-8.27494 -0.781578,-1.74489 -0.984372,-2.23242 -2.748214,-6.60688 -0.406191,-1.00738 -1.023884,-2.49392 -1.372649,-3.30342 -1.528734,-3.54827 -1.814033,-4.22469 -2.290022,-5.42941 -1.863657,-4.71689 -2.654652,-8.26164 -2.656646,-11.90544 -9.32e-4,-1.66485 0.05928,-2.39795 0.337386,-4.1088 0.515251,-3.16979 1.46282,-6.04133 3.73211,-11.30989 1.009435,-2.34357 1.939828,-4.5669 2.67698,-6.39706 0.77091,-1.91397 1.501151,-3.69188 1.746403,-4.25193 0.642512,-1.46725 1.070725,-2.38673 1.553696,-3.33615 3.323454,-6.53315 6.917986,-9.95408 13.931519,-13.25868 1.742368,-0.82097 2.285032,-1.05085 6.343975,-2.68751 2.182176,-0.8799 3.543879,-1.44983 6.213172,-2.60045 3.114644,-1.34259 4.415585,-1.85415 6.343974,-2.49454 2.197485,-0.72974 3.722299,-1.09105 6.201199,-1.46937 0.89865,-0.13716 3.982468,-0.19674 4.964488,-0.0959 2.866733,0.29427 5.684429,0.98418 8.749165,2.14218 0.988863,0.37365 2.410088,0.93755 2.943081,1.16774 0.269781,0.11651 0.887825,0.3818 1.373443,0.58951 1.021101,0.43676 1.503311,0.64374 2.812273,1.2071 0.978637,0.42121 1.739128,0.73312 4.872444,1.99843 2.72662,1.10108 2.70273,1.09105 4.31651,1.81253 6.24491,2.79193 9.97691,5.74821 12.86912,10.19415 1.2507,1.92259 2.75663,4.87114 3.87303,7.58325 0.27722,0.67346 1.07164,2.63228 1.8173,4.4809 0.62587,1.55166 1.02559,2.49859 2.30573,5.46211 2.14212,4.95901 3.16297,8.03993 3.68862,11.13231 0.30068,1.76883 0.3528,2.38537 0.3528,4.17469 0,1.79061 -0.0518,2.40241 -0.35433,4.18652 -0.51771,3.05293 -1.54297,6.15079 -3.65879,11.05506 -0.22505,0.52167 -0.50402,1.16928 -0.6199,1.43911 -0.11589,0.26984 -0.39247,0.91323 -0.61464,1.42975 -0.22218,0.51653 -0.45807,1.07582 -0.52424,1.24288 -0.0661,0.16706 -0.3703,0.92189 -0.67588,1.67744 -0.30557,0.75554 -0.739,1.82997 -0.96317,2.38763 -1.65601,4.11951 -3.32139,7.4817 -4.79544,9.68134 -3.03596,4.53044 -6.90688,7.45995 -13.71394,10.37875 -1.54883,0.66414 -3.42838,1.43604 -4.67622,1.92045 -0.2518,0.0977 -0.79628,0.3173 -1.20994,0.48788 -1.988604,0.82 -2.315065,0.95784 -3.564398,1.50506 -6.034871,2.6433 -9.230347,3.7314 -12.567784,4.27954 -1.725089,0.28335 -3.472517,0.41022 -4.894501,0.3554 z m 2.746875,-2.58156 c 3.557975,-0.3069 6.750371,-1.31952 13.897893,-4.40836 2.09319,-0.90459 2.098258,-0.9067 4.839725,-2.01243 4.12539,-1.66392 5.29625,-2.16777 7.0307,-3.02551 5.43389,-2.68727 8.17688,-5.12819 10.95079,-9.74474 0.4632,-0.7709 1.88259,-3.58174 2.29577,-4.54631 0.11558,-0.26984 0.31132,-0.7261 0.43499,-1.01393 0.31327,-0.72912 0.77949,-1.86848 1.80679,-4.41548 0.87134,-2.16033 1.0319,-2.54405 2.03916,-4.87338 1.95171,-4.51338 2.83447,-6.87059 3.4666,-9.2567 0.70335,-2.65496 0.99518,-5.33533 0.82258,-7.55483 -0.23616,-3.03663 -1.0696,-6.191 -2.70487,-10.23738 -0.47066,-1.16464 -0.71846,-1.7492 -2.10736,-4.9715 -0.34891,-0.8095 -1.05523,-2.51681 -1.56958,-3.79403 -0.51435,-1.27722 -1.08858,-2.69018 -1.27605,-3.13991 -0.18748,-0.44972 -0.40732,-0.97958 -0.48853,-1.17745 -0.84552,-2.06008 -2.18748,-4.69752 -3.22849,-6.3452 -2.41088,-3.81586 -5.01354,-6.11736 -9.64583,-8.5297 -1.57066,-0.81793 -3.38486,-1.62292 -6.35513,-2.81987 -3.892513,-1.56857 -4.554121,-1.843 -6.867189,-2.84842 -5.789392,-2.51649 -8.854974,-3.53828 -12.099334,-4.03282 -1.083651,-0.16519 -1.333204,-0.17955 -3.139287,-0.18064 -1.711081,-8.2e-4 -2.090666,0.0179 -2.967519,0.14837 -1.664927,0.24762 -2.838083,0.51507 -4.520988,1.03066 -2.18177,0.66841 -3.720999,1.2727 -8.567636,3.36354 -1.025174,0.44225 -2.025821,0.86998 -2.223662,0.95048 -0.197841,0.0804 -1.492795,0.60326 -2.877679,1.16169 -5.652125,2.2791 -7.97024,3.39598 -10.512501,5.06497 -3.977059,2.61093 -6.669262,6.10162 -9.266952,12.01544 -0.637202,1.45065 -0.897176,2.07842 -2.414076,5.82946 -0.856244,2.11735 -1.10894,2.72 -2.002336,4.77526 -1.861571,4.28258 -2.831319,6.9085 -3.430366,9.28886 -0.543201,2.15847 -0.77563,3.9129 -0.77563,5.85461 0,4.01497 0.997895,7.70126 3.913477,14.4566 1.342953,3.1116 2.267494,5.32473 2.773692,6.63957 0.239127,0.62113 0.977698,2.42132 1.406413,3.42799 0.669279,1.57153 0.80513,1.87546 1.269252,2.83963 2.818675,5.85555 5.748496,9.03311 10.896502,11.81789 1.365056,0.73842 2.956251,1.50301 4.349221,2.08988 0.269781,0.11366 0.59352,0.25303 0.719419,0.30968 0.125899,0.0567 1.347277,0.55335 2.714175,1.10373 2.822695,1.13658 4.305431,1.75393 6.50748,2.70951 4.364777,1.8941 6.803885,2.78527 9.319757,3.40519 2.759602,0.67995 4.988878,0.86966 7.586609,0.64558 z m -4.218416,-1.5707 c -0.962064,-0.0985 -3.118937,-0.5053 -4.146262,-0.78206 -2.537599,-0.68367 -4.253567,-1.31966 -8.934098,-3.31129 -1.368087,-0.58213 -1.55488,-0.6605 -2.681475,-1.12485 -0.629493,-0.25944 -1.350547,-0.55722 -1.602344,-0.66172 -0.251797,-0.10448 -1.04643,-0.4304 -1.76585,-0.72424 -4.052193,-1.65515 -6.36449,-2.79351 -8.600336,-4.234 -4.12753,-2.65925 -6.824738,-5.92053 -9.396155,-11.3612 -0.815272,-1.72497 -1.370407,-3.03183 -2.931535,-6.90123 -0.224989,-0.55765 -0.630053,-1.52906 -0.900143,-2.15867 -1.989002,-4.63666 -2.642413,-6.2869 -3.286451,-8.3002 -0.613276,-1.91714 -1.045846,-3.80115 -1.285852,-5.60039 -0.118663,-0.88959 -0.118663,-4.53983 0,-5.42941 0.468528,-3.51238 1.393235,-6.44886 3.821163,-12.13439 1.091655,-2.55635 1.220985,-2.86319 1.585348,-3.76133 1.674046,-4.12646 1.844603,-4.53366 2.63033,-6.2798 0.436876,-0.97088 1.387466,-2.85272 1.817384,-3.5978 2.386274,-4.13556 4.826298,-6.65814 8.763434,-9.05992 1.440682,-0.87886 4.865362,-2.55869 6.605582,-3.24008 0.215825,-0.0845 0.672003,-0.26945 1.013727,-0.41099 0.341725,-0.14153 1.239364,-0.50895 1.994756,-0.81649 1.672176,-0.6808 2.290801,-0.93837 3.727903,-1.55215 2.834305,-1.21056 3.321451,-1.41403 4.480024,-1.87138 3.332179,-1.31534 6.280023,-2.10619 8.992748,-2.41254 1.607303,-0.1815 4.286064,-0.11875 5.82076,0.13637 3.769581,0.62665 6.480572,1.54986 13.472769,4.58809 0.476321,0.20696 1.29771,0.54385 3.826017,1.56917 3.10172,1.25787 4.99326,2.11044 6.76908,3.05103 6.02411,3.19071 9.27151,6.82994 12.44246,13.94376 0.66069,1.48222 1.06651,2.45459 2.41616,5.78919 0.19659,0.4857 0.81446,1.95753 1.37307,3.27073 1.21247,2.85037 1.37015,3.22779 1.7217,4.12111 1.9546,4.96673 2.70849,8.80004 2.48607,12.64135 -0.20113,3.47354 -1.01287,6.51926 -3.10769,11.66015 -0.11729,0.28782 -0.61664,1.46528 -1.10968,2.61658 -0.49304,1.15129 -1.17109,2.7703 -1.50679,3.59779 -0.33569,0.8275 -0.79256,1.94608 -1.01526,2.48575 -0.2227,0.53968 -0.47099,1.14312 -0.55176,1.34101 -0.31879,0.78101 -1.30844,2.94603 -1.71695,3.75606 -2.55725,5.0707 -5.36037,8.20475 -9.64564,10.78439 -2.18144,1.31316 -4.40795,2.3746 -8.29317,3.95353 -3.316497,1.34781 -3.636034,1.48042 -6.016962,2.49711 -2.660388,1.13601 -3.016027,1.28123 -4.480032,1.82924 -3.016192,1.12908 -5.522376,1.77355 -8.044223,2.06861 -0.935818,0.10949 -3.770767,0.1245 -4.741827,0.0251 z m 5.264844,-2.40122 c 3.180856,-0.49575 5.750114,-1.34494 11.510716,-3.80456 1.913234,-0.81689 2.423239,-1.02897 4.741215,-1.97171 6.293449,-2.55957 8.903029,-3.91994 11.577969,-6.03564 0.63443,-0.50178 2.35333,-2.22207 2.84893,-2.85118 0.70065,-0.88945 0.83198,-1.07149 1.36856,-1.89703 1.37148,-2.11009 2.393,-4.15593 3.95212,-7.91516 0.62314,-1.50247 0.7149,-1.72596 1.31595,-3.20531 0.32889,-0.80951 0.90022,-2.1783 1.26963,-3.04178 1.6999,-3.97349 2.14284,-5.10001 2.77528,-7.05831 0.95466,-2.95588 1.33409,-5.13042 1.33658,-7.65995 0.003,-3.78818 -0.85457,-7.09214 -3.40726,-13.1156 -0.34306,-0.80951 -0.74858,-1.7662 -0.90115,-2.12598 -0.46152,-1.08834 -1.09371,-2.61581 -1.59735,-3.85947 -2.0716,-5.11544 -3.23185,-7.52617 -4.73299,-9.83402 -1.60277,-2.46413 -3.48634,-4.36323 -5.96287,-6.01204 -2.31637,-1.54219 -4.78075,-2.72844 -10.366193,-4.98987 -1.699997,-0.68828 -2.020456,-0.8219 -3.924117,-1.63608 -5.798926,-2.48019 -7.924706,-3.20754 -11.193468,-3.83001 -1.509712,-0.28749 -4.06248,-0.3725 -5.763522,-0.19194 -1.033507,0.1097 -2.887823,0.46813 -3.938879,0.76138 -2.235794,0.62378 -4.196308,1.3593 -8.371431,3.14071 -1.943485,0.82922 -2.272206,0.96704 -3.564399,1.49425 -0.449637,0.18345 -1.023539,0.41871 -1.275336,0.52278 -0.251796,0.10408 -1.072191,0.44235 -1.823098,0.75171 -8.118003,3.34453 -11.572606,5.99368 -14.638041,11.22508 -1.179147,2.0123 -2.209614,4.25295 -4.04449,8.79431 -0.530069,1.31194 -1.274598,3.09711 -1.991583,4.77526 -1.548564,3.62451 -2.175177,5.26671 -2.746653,7.19829 -0.779459,2.63456 -1.079102,4.55013 -1.079102,6.89854 0,3.2809 0.678213,6.29512 2.399057,10.66231 0.419795,1.06535 0.534162,1.34112 1.329474,3.20557 0.81526,1.9112 1.327332,3.131 1.743781,4.15381 0.23438,0.57564 0.581914,1.42932 0.772301,1.89703 1.867722,4.58836 3.022021,6.93827 4.488934,9.13851 0.914505,1.37167 1.509124,2.1008 2.635996,3.23228 0.50572,0.50779 1.227957,1.16697 1.604971,1.46484 0.667344,0.52725 2.360288,1.66607 3.25333,2.18847 0.619828,0.36257 3.077163,1.59582 3.745903,1.87993 0.305754,0.12988 1.012094,0.43194 1.569644,0.67123 1.254716,0.5385 1.562476,0.66608 3.400895,1.40975 1.57534,0.63723 3.517336,1.44687 4.316518,1.79957 3.195897,1.41043 6.015854,2.46648 8.273329,3.09824 0.930278,0.26032 2.771708,0.63389 3.564398,0.72307 0.341723,0.0384 0.724325,0.0816 0.850223,0.096 0.125899,0.0144 1.038254,0.0169 2.027456,0.006 1.403689,-0.0159 1.985212,-0.0495 2.648772,-0.15291 z m -4.872433,-1.62031 c -2.235624,-0.19719 -5.03038,-0.88396 -7.913618,-1.94464 -0.692282,-0.25466 -2.980573,-1.17767 -4.087613,-1.64878 -1.642412,-0.69892 -2.955836,-1.24706 -4.381921,-1.82871 -1.578239,-0.64371 -2.287744,-0.94238 -3.106587,-1.30777 -0.377694,-0.16852 -0.863304,-0.38024 -1.079129,-0.47048 -0.739875,-0.30931 -3.002888,-1.48549 -3.921282,-2.03805 -1.992442,-1.19874 -3.252372,-2.16511 -4.651706,-3.56784 -1.465099,-1.46867 -2.524817,-2.86661 -3.72481,-4.91365 -0.54331,-0.92684 -1.854303,-3.52654 -2.21016,-4.38278 -0.08971,-0.21587 -0.314117,-0.74573 -0.498671,-1.17746 -0.184553,-0.43174 -0.631705,-1.50617 -0.99367,-2.38763 -0.361966,-0.88147 -0.938254,-2.26498 -1.28064,-3.07447 -2.498452,-5.90708 -3.270003,-8.16932 -3.838475,-11.25461 -0.253418,-1.3754 -0.3739,-3.39039 -0.293481,-4.90832 0.198734,-3.75115 1.144638,-7.07372 3.723474,-13.07898 0.223644,-0.5208 0.472899,-1.1088 0.553899,-1.30668 0.08099,-0.19788 0.537004,-1.30175 1.013343,-2.45304 0.837575,-2.0244 1.129816,-2.724 1.571202,-3.76134 0.396798,-0.93254 1.612931,-3.37201 2.119693,-4.25195 1.218068,-2.11501 2.324691,-3.59361 3.798246,-5.07494 1.291896,-1.29872 2.474319,-2.24221 4.022211,-3.20943 1.091686,-0.68216 1.37573,-0.8442 2.50557,-1.42936 1.444104,-0.74791 3.715826,-1.77457 5.571553,-2.51795 0.536667,-0.21497 1.627489,-0.66312 2.55067,-1.04787 0.35971,-0.14993 0.889465,-0.37052 1.177232,-0.49023 0.287768,-0.11969 0.876386,-0.36898 1.308037,-0.55399 4.915991,-2.10692 8.071355,-3.09859 11.281812,-3.54566 0.835711,-0.11637 4.58413,-0.11705 5.395648,-8.2e-4 3.276846,0.46872 6.09103,1.35517 11.249108,3.54338 1.282176,0.54394 2.644679,1.1105 4.414632,1.83571 5.018786,2.05637 7.611526,3.36814 9.941076,5.02958 1.15812,0.82599 1.62606,1.2266 2.74915,2.35357 1.15607,1.16007 1.88995,2.05138 2.72479,3.30925 1.68988,2.54617 2.8068,4.86737 5.35107,11.12047 0.23898,0.58736 0.51866,1.25418 1.2072,2.87824 1.62469,3.83215 2.45118,6.20896 2.98352,8.57992 0.49873,2.22134 0.68582,4.33384 0.5595,6.31823 -0.23962,3.76458 -1.16349,6.96002 -3.78731,13.09926 -0.21528,0.50369 -0.54473,1.28376 -0.73214,1.73348 -0.18739,0.44973 -0.456,1.09091 -0.59691,1.42485 -0.1409,0.33394 -0.25619,0.6212 -0.25619,0.63839 0,0.033 -0.24328,0.61698 -0.99356,2.38496 -1.81864,4.28556 -3.48671,7.21317 -5.32626,9.34809 -2.69626,3.12916 -5.88242,5.22406 -11.66569,7.67011 -1.382874,0.58491 -1.845785,0.77758 -3.433589,1.42913 -0.508156,0.20852 -2.263213,0.94502 -3.073886,1.28994 -5.036831,2.14302 -7.823882,3.03173 -11.052905,3.52444 -0.629425,0.096 -4.150225,0.18026 -4.872433,0.11656 z m 2.962453,-2.05312 c 3.309756,-0.21444 6.47613,-1.12471 11.883758,-3.41631 1.060275,-0.44931 3.946691,-1.64889 5.559162,-2.31035 0.413657,-0.16969 1.009672,-0.42245 1.324471,-0.56167 0.3148,-0.13924 0.588019,-0.25316 0.607179,-0.25316 0.0869,0 2.63842,-1.21966 3.43129,-1.64018 4.66775,-2.47568 7.19934,-4.98529 9.6623,-9.5784 0.98836,-1.84316 1.88695,-3.8664 3.64616,-8.20952 0.13972,-0.34492 0.5881,-1.40886 1.06139,-2.51845 2.17495,-5.09912 3.08723,-8.02086 3.49268,-11.1859 0.10568,-0.82506 0.10764,-3.3961 0.003,-4.21923 -0.35657,-2.81048 -1.24908,-5.85632 -2.78898,-9.51781 -1.49199,-3.54757 -2.17441,-5.18527 -3.33909,-8.01329 -1.99197,-4.83676 -4.14231,-8.25301 -6.60361,-10.4911 -1.91729,-1.74342 -4.55016,-3.36095 -7.7854,-4.78301 -0.4662,-0.20493 -1.068363,-0.46954 -1.338146,-0.58804 -0.730837,-0.321 -1.767636,-0.75764 -2.027461,-0.85382 -0.125908,-0.0466 -0.626226,-0.25105 -1.111831,-0.45431 -0.4856,-0.20328 -1.059507,-0.43905 -1.275336,-0.52394 -0.215821,-0.0849 -0.745575,-0.30628 -1.177226,-0.49195 -5.425989,-2.33395 -8.359885,-3.32048 -11.171683,-3.75648 -4.562414,-0.70749 -8.71003,0.071 -15.316054,2.87452 -2.14616,0.91081 -3.302139,1.39432 -4.610827,1.92856 -0.809347,0.33038 -1.63341,0.67023 -1.83125,0.75519 -0.197841,0.085 -0.771742,0.33049 -1.275336,0.54557 -4.303765,1.83811 -6.861558,3.34605 -9.105979,5.36838 -2.279635,2.05408 -4.38501,5.33824 -6.292913,9.8163 -0.222265,0.52167 -0.473314,1.11042 -0.557888,1.30829 -0.08457,0.19787 -0.424259,1.0221 -0.754858,1.8316 -0.330597,0.8095 -0.880639,2.13415 -1.222317,2.94365 -0.701692,1.66247 -1.379463,3.29042 -1.552354,3.72864 -2.601117,6.59292 -3.025631,10.66391 -1.664392,15.96114 0.520304,2.02473 1.357514,4.32388 2.870321,7.88244 0.183538,0.43174 0.614472,1.46202 0.957633,2.28951 0.343161,0.82749 0.801611,1.93137 1.018781,2.45305 0.217167,0.52168 0.460001,1.11041 0.539629,1.30828 0.373024,0.92698 1.039426,2.38113 1.678755,3.66323 1.995749,4.00218 3.996376,6.48182 6.906154,8.55969 1.345299,0.96067 3.93239,2.4078 5.564946,3.11283 0.276458,0.11939 0.885252,0.38492 1.352875,0.59009 0.724453,0.31783 2.760664,1.16746 4.708931,1.96487 0.532275,0.21786 1.195261,0.49592 2.485268,1.04237 5.87465,2.48848 9.124528,3.37405 12.818753,3.49299 0.143885,0.004 0.697072,-0.0198 1.229307,-0.0542 z m -1.817922,-1.93727 c -2.184753,-0.12151 -3.974338,-0.44068 -6.156319,-1.09797 -1.95132,-0.58779 -3.112066,-1.02605 -6.825939,-2.57725 -0.341724,-0.14273 -1.062779,-0.44198 -1.602344,-0.66499 -1.523972,-0.6299 -2.506062,-1.04271 -3.041184,-1.27829 -0.269783,-0.11877 -0.872374,-0.38379 -1.339091,-0.58895 -1.133985,-0.49845 -2.355072,-1.11371 -3.467942,-1.74738 -4.019788,-2.28883 -6.442454,-4.72137 -8.78068,-8.81647 -0.751527,-1.31622 -2.301279,-4.6334 -3.010257,-6.44334 -0.115042,-0.29369 -0.968749,-2.34709 -1.468603,-3.53239 -2.321845,-5.50578 -3.141898,-8.40798 -3.388584,-11.99232 -0.198729,-2.88751 0.357612,-6.14849 1.699248,-9.96015 0.690337,-1.96127 3.915857,-9.72079 4.892086,-11.76871 3.295547,-6.91334 6.715558,-10.10066 14.438712,-13.45626 0.979886,-0.42573 1.740732,-0.74495 3.384233,-1.41987 0.296931,-0.12194 0.93719,-0.3892 1.422799,-0.59392 5.271294,-2.22219 7.768735,-3.0504 10.627792,-3.52444 2.418695,-0.40102 5.35338,-0.31811 7.880918,0.22267 1.544202,0.33038 4.06988,1.07936 5.035939,1.49338 0.08993,0.0385 0.722689,0.29035 1.406136,0.55959 0.683454,0.26924 1.566376,0.62651 1.962059,0.79393 0.819037,0.34656 1.146514,0.48277 2.158256,0.89766 4.438821,1.82021 6.592747,2.81938 8.500637,3.94331 5.06077,2.98123 7.70209,6.31252 10.83704,13.66783 0.16754,0.39311 1.1296,2.70361 1.59339,3.82674 0.0818,0.19789 0.27267,0.65415 0.42433,1.01393 2.65728,6.30365 3.58058,9.9968 3.4425,13.76976 -0.13281,3.62909 -0.99762,6.79248 -3.4425,12.59229 -0.15166,0.35977 -0.3426,0.81605 -0.42433,1.01392 -1.07234,2.59684 -1.64774,3.96569 -2.04849,4.87339 -3.20499,7.25906 -6.17687,10.56016 -12.2994,13.66184 -1.08956,0.55197 -1.709394,0.83836 -3.411182,1.57607 -0.269783,0.11693 -0.680482,0.29507 -0.912688,0.39584 -0.232188,0.10077 -0.666299,0.28189 -0.964671,0.40249 -0.728798,0.29456 -1.489199,0.60833 -2.259306,0.93225 -0.35072,0.14752 -0.924617,0.38897 -1.275345,0.53655 -3.115619,1.311 -5.94329,2.30234 -7.537552,2.64257 -1.664318,0.35518 -2.09249,0.42956 -2.975782,0.51684 -1.069938,0.10575 -2.455152,0.16426 -3.073886,0.12985 z m 3.498997,-2.08361 c 0.377696,-0.0596 1.142896,-0.21025 1.700446,-0.33456 2.216719,-0.49426 4.509402,-1.30321 8.600341,-3.03456 0.323739,-0.13702 1.177223,-0.49116 1.896645,-0.78701 4.531898,-1.86369 6.767523,-2.95227 8.796553,-4.28334 3.92888,-2.57737 6.22838,-5.69888 8.93977,-12.13554 0.23491,-0.55766 0.50932,-1.20526 0.60977,-1.43912 0.10045,-0.23385 0.32109,-0.7637 0.4903,-1.17745 0.26414,-0.64592 0.67423,-1.63387 1.53411,-3.69593 2.05773,-4.93461 2.91691,-8.9491 2.61803,-12.23252 -0.30232,-3.32116 -1.01509,-5.70817 -3.4378,-11.51294 -0.42043,-1.00739 -0.82196,-1.97879 -0.89227,-2.15869 -0.0703,-0.17989 -0.21044,-0.5184 -0.31142,-0.75227 -0.10099,-0.23385 -0.37581,-0.88145 -0.61072,-1.4391 -2.87286,-6.81996 -5.34927,-10.0173 -9.8227,-12.68226 -0.97834,-0.58284 -2.830338,-1.54978 -3.760602,-1.96345 -1.000536,-0.44493 -2.457653,-1.06824 -3.760604,-1.60866 -0.84277,-0.34956 -1.482766,-0.61655 -2.746874,-1.14591 -5.188589,-2.17275 -7.934344,-3.00183 -10.846357,-3.27504 -1.036654,-0.0973 -3.467621,-0.0447 -4.398282,0.0952 -2.82148,0.42404 -5.392498,1.27065 -10.850684,3.57303 -0.359711,0.15173 -0.889464,0.37194 -1.177233,0.48936 -5.474876,2.23382 -8.09129,3.58158 -10.463453,5.38989 -0.809099,0.61677 -2.398676,2.18686 -3.053829,3.01638 -1.774241,2.24644 -3.324993,5.21291 -5.385889,10.30278 -0.116542,0.28783 -0.329726,0.80296 -0.473747,1.14475 -2.866535,6.80297 -3.627957,9.33119 -3.876631,12.87194 -0.2537,3.61227 0.754865,7.59363 3.59961,14.20968 0.100553,0.23386 0.468433,1.11695 0.817512,1.96242 1.879231,4.55158 2.915583,6.65437 4.303964,8.73285 1.382365,2.06948 2.980873,3.6982 5.0165,5.11134 0.511946,0.35539 0.826438,0.55346 1.940569,1.22221 0.805389,0.48344 3.939703,1.99107 5.122827,2.46412 0.161869,0.0648 0.573901,0.23522 0.915625,0.37884 0.341723,0.14365 1.224649,0.51137 1.962053,0.81712 0.737406,0.30578 1.796915,0.74707 2.354466,0.98067 4.401618,1.84415 7.236616,2.69431 9.973775,2.99092 0.849817,0.0921 3.881897,0.0304 4.676229,-0.0952 z M 78.481764,452.242 c -2.786013,-0.21448 -5.855476,-1.03374 -9.537875,-2.5457 -0.251797,-0.10339 -0.707975,-0.2907 -1.013728,-0.41622 -4.576416,-1.87897 -6.766651,-2.86589 -8.338731,-3.75739 -5.483659,-3.10971 -8.031467,-6.29644 -11.334024,-14.17624 -0.867406,-2.06961 -1.112352,-2.66474 -1.709658,-4.15383 -1.593144,-3.97171 -2.284262,-6.6238 -2.501743,-9.60015 -0.139194,-1.90495 0.111152,-4.24265 0.703101,-6.56548 0.590678,-2.31784 1.503056,-4.74 3.902379,-10.35995 2.1389,-5.00996 4.106788,-8.03656 6.717887,-10.33206 2.198816,-1.93306 4.857092,-3.45269 9.330236,-5.33372 0.607747,-0.25556 1.34044,-0.56448 1.628209,-0.68649 0.287767,-0.122 0.891099,-0.37269 1.340735,-0.5571 0.44964,-0.1844 1.02354,-0.4202 1.275337,-0.52398 4.708898,-1.94072 8.692327,-2.79302 11.947519,-2.55633 1.813489,0.13187 2.615079,0.25712 4.239428,0.66242 1.851712,0.46204 4.095886,1.25412 7.030693,2.4815 0.32374,0.13539 1.000646,0.41703 1.504246,0.62587 2.460732,1.02046 3.44974,1.45848 4.807033,2.12897 5.507112,2.72045 8.413262,5.58149 11.080872,10.90885 0.82822,1.65402 1.52434,3.23811 3.09434,7.04152 1.60371,3.8851 2.34058,6.21086 2.72834,8.61143 0.40566,2.51148 0.40571,4.14159 2.1e-4,6.65204 -0.38653,2.39311 -1.1922,4.92147 -2.80704,8.80908 -1.5954,3.8408 -1.99577,4.75161 -2.84658,6.47604 -1.48899,3.01782 -2.65127,4.75096 -4.38123,6.53302 -1.76045,1.81349 -3.8355,3.24738 -6.868912,4.74656 -1.150927,0.5688 -1.79234,0.85961 -3.4336,1.5568 -0.490768,0.20849 -0.804388,0.33972 -2.616068,1.09478 -5.334535,2.22323 -7.993873,2.98207 -11.347217,3.23788 -0.9793,0.0747 -1.602719,0.0741 -2.594159,-0.002 z m 2.513882,-1.69753 c 1.219799,-0.0931 2.933623,-0.39662 4.200591,-0.74401 2.00472,-0.54967 3.691888,-1.17291 7.586611,-2.80251 0.341731,-0.14297 0.783186,-0.32631 0.981023,-0.40743 0.742756,-0.3045 2.605243,-1.1245 3.433467,-1.51163 1.047765,-0.48978 2.66651,-1.38907 3.784362,-2.10242 2.20093,-1.40451 4.1804,-3.44619 5.6755,-5.85386 1.31595,-2.11917 2.11531,-3.82525 4.47751,-9.55641 1.6004,-3.88286 2.34367,-6.32676 2.68429,-8.82609 0.15058,-1.10502 0.14972,-3.45174 -0.002,-4.56498 -0.41448,-3.04714 -1.3785,-5.87349 -4.4401,-13.01748 -1.72298,-4.02043 -3.38567,-6.72927 -5.34523,-8.70835 -1.23527,-1.24758 -2.36298,-2.11229 -4.120317,-3.15937 -0.669142,-0.39871 -3.215147,-1.68313 -4.121291,-2.07915 -0.695526,-0.30396 -2.284317,-0.97878 -2.974807,-1.26351 -0.287764,-0.11866 -0.89109,-0.36837 -1.340731,-0.55493 -4.888349,-2.02814 -7.526404,-2.77987 -10.562393,-3.00979 -3.182693,-0.24103 -7.180368,0.66437 -12.001231,2.71804 -0.19784,0.0843 -0.727596,0.30466 -1.177233,0.48974 -3.201483,1.31774 -4.326449,1.81479 -6.016965,2.65847 -5.504115,2.74689 -8.23366,5.72605 -11.018141,12.02575 -0.675426,1.5281 -0.742516,1.68477 -1.344567,3.1399 -0.327486,0.79152 -0.664345,1.60102 -0.748575,1.7989 -1.52887,3.59176 -2.412847,6.50442 -2.745696,9.0469 -0.134555,1.02782 -0.135332,3.37534 -0.0014,4.39682 0.363536,2.77376 1.15241,5.25732 3.303392,10.39988 0.331067,0.7915 0.667589,1.60101 0.747823,1.79888 0.332162,0.8192 1.195338,2.7139 1.653969,3.63051 0.683687,1.36641 1.052938,2.01497 1.75499,3.08252 2.610625,3.96973 5.511413,6.05188 12.524145,8.98963 6.244793,2.61606 8.257779,3.30414 10.99422,3.7581 1.694543,0.28113 2.722506,0.33744 4.158549,0.22788 z m -2.732,-2.36384 c -1.633287,-0.15161 -3.6448,-0.58285 -5.493751,-1.17775 -1.523489,-0.4902 -3.94442,-1.44311 -6.865361,-2.70234 -0.843573,-0.36365 -3.170589,-1.50639 -3.761145,-1.847 -2.238085,-1.29083 -3.5403,-2.27408 -5.015124,-3.7867 -2.036555,-2.08877 -3.663049,-4.82775 -5.667799,-9.54449 -1.914157,-4.50358 -2.679581,-6.8442 -3.144576,-9.61593 -0.673018,-4.01169 -0.06716,-7.75593 2.148687,-13.27915 0.972739,-2.42465 1.70038,-4.08627 2.520793,-5.75648 3.084733,-6.27989 6.321124,-9.09845 14.241987,-12.40326 1.957486,-0.81672 2.253373,-0.9353 3.801668,-1.52372 3.747418,-1.42416 7.336517,-2.06458 10.145002,-1.81024 3.31413,0.30013 5.972532,1.09085 11.41262,3.39457 1.343683,0.56902 1.561505,0.66481 2.256352,0.99233 3.61675,1.70474 5.706701,3.09522 7.693231,5.11839 1.74778,1.78001 3.62138,4.7718 5.00883,7.99813 0.12377,0.28782 0.35828,0.8324 0.52109,1.21016 0.48415,1.12328 1.35144,3.26684 1.77328,4.38278 0.78215,2.06914 1.3668,4.32802 1.6592,6.41063 0.13252,0.94398 0.11364,3.76089 -0.0314,4.69266 -0.48597,3.1205 -1.36401,5.83373 -3.44558,10.64703 -0.18671,0.43174 -0.41331,0.96159 -0.50357,1.17747 -0.28875,0.69069 -1.37173,2.85408 -1.80432,3.60437 -2.49549,4.32823 -5.27574,6.79263 -10.412882,9.22995 -1.136602,0.53926 -1.931316,0.89439 -2.746865,1.22745 -0.287772,0.11752 -0.964679,0.39638 -1.504248,0.61968 -2.516352,1.04144 -4.240679,1.65439 -5.689957,2.02263 -0.287769,0.0731 -0.699799,0.17917 -0.915626,0.23569 -0.527373,0.1381 -2.251216,0.40772 -3.139287,0.49102 -0.833997,0.0782 -2.150403,0.0747 -3.041184,-0.008 z m 3.6298,-1.59105 c 2.242277,-0.25135 4.780509,-0.99315 8.175227,-2.38922 2.22969,-0.91695 2.464321,-1.01686 3.727899,-1.58742 6.586298,-2.974 9.414478,-5.86158 12.412218,-12.6729 2.21725,-5.03791 3.25807,-8.10178 3.67772,-10.82612 0.68091,-4.42047 -0.16111,-8.11097 -3.679,-16.12467 -1.90769,-4.3457 -3.80164,-7.0811 -6.303907,-9.10462 -2.057106,-1.66352 -4.611532,-3.00251 -9.83493,-5.15532 -2.984516,-1.23005 -5.574495,-2.01978 -7.634236,-2.32778 -0.940061,-0.14058 -3.241835,-0.19414 -4.277675,-0.0996 -2.612017,0.23855 -5.18023,1.01855 -10.095799,3.06623 -4.607931,1.91953 -7.377712,3.54389 -9.376175,5.49871 -2.182291,2.13462 -3.776985,4.7127 -5.631105,9.10356 -0.311444,0.73755 -0.641876,1.51509 -0.734296,1.72788 -0.09242,0.21277 -0.313562,0.75735 -0.491426,1.21016 -1.417703,3.60922 -2.021545,5.93866 -2.217394,8.55402 -0.163138,2.17855 0.220467,4.72132 1.147903,7.60898 0.972237,3.02717 3.302834,8.41147 4.636766,10.71215 2.22484,3.8373 4.747942,6.06333 9.46104,8.34712 0.701435,0.33988 1.451919,0.69134 1.667746,0.78102 0.215825,0.0897 0.71615,0.30076 1.11183,0.46902 4.096202,1.74207 6.404599,2.52679 8.956598,3.04477 1.264656,0.25668 3.779939,0.3345 5.300996,0.16399 z m -3.760604,-2.46412 c -0.929756,-0.0962 -2.727358,-0.43389 -3.628236,-0.68151 -2.489291,-0.6842 -5.711916,-1.95526 -8.372995,-3.30243 -2.607585,-1.32012 -4.284891,-2.48411 -5.88671,-4.0852 -2.183985,-2.18298 -3.76096,-4.79118 -5.67559,-9.38702 -1.243648,-2.98521 -1.963845,-5.42273 -2.309644,-7.81702 -0.156389,-1.08282 -0.158524,-3.60797 -0.004,-4.72853 0.427818,-3.10234 1.743426,-6.97286 3.773562,-11.1018 3.013221,-6.12834 6.339252,-8.9287 14.451598,-12.16752 3.411359,-1.36198 6.140314,-2.01205 8.829244,-2.10328 2.774431,-0.0941 5.807908,0.52014 9.352454,1.89381 1.882607,0.7296 2.987691,1.2105 4.545426,1.97803 4.750818,2.34081 7.260339,4.66111 9.725899,8.99256 0.28122,0.49401 1.22278,2.39613 1.46732,2.96423 1.84114,4.27693 2.57006,6.55398 3.00882,9.39912 0.16479,1.06861 0.16463,3.90472 -3e-4,4.9715 -0.44113,2.85348 -1.14431,5.04835 -3.01787,9.41969 -0.32141,0.74993 -1.23803,2.56467 -1.70157,3.36885 -1.93254,3.35259 -4.175416,5.60318 -7.51237,7.53815 -0.792027,0.45927 -3.049264,1.58734 -3.833875,1.91601 -2.954461,1.23759 -4.199577,1.694 -5.984266,2.19363 -1.107434,0.31003 -2.821242,0.634 -3.947389,0.74619 -0.791159,0.0789 -2.483204,0.075 -3.279511,-0.008 z m 2.975782,-1.30086 c 1.316815,-0.11103 2.857027,-0.41055 4.381922,-0.85214 1.877844,-0.54379 4.986957,-1.78711 7.192651,-2.87632 5.835781,-2.88175 8.478373,-6.0424 11.565843,-13.83325 2.05351,-5.18177 2.46218,-8.78365 1.47694,-13.01749 -0.7989,-3.43314 -2.99675,-8.61453 -4.88112,-11.50721 -2.349085,-3.60603 -5.312865,-5.81646 -10.939694,-8.15896 -3.988783,-1.66057 -6.657207,-2.36988 -9.45056,-2.51213 -2.483656,-0.12647 -5.588268,0.51547 -9.123552,1.8865 -3.239316,1.25625 -5.389167,2.3113 -7.357702,3.61082 -3.482644,2.29904 -5.536134,5.03172 -7.865189,10.46661 -1.050199,2.45066 -1.71956,4.38191 -2.142525,6.18167 -0.302914,1.28893 -0.410086,2.00711 -0.480849,3.22228 -0.197132,3.38521 0.517938,6.52082 2.606711,11.43057 0.993427,2.33509 2.216672,4.65971 3.063155,5.82113 0.09209,0.12635 0.286379,0.39161 0.431764,0.5895 2.293883,3.12212 5.512359,5.24835 11.54843,7.6292 3.940636,1.55436 7.097132,2.16174 9.973775,1.91922 z m -2.746875,-2.72188 c -3.288961,-0.37498 -6.091258,-1.22913 -9.41786,-2.87059 -2.460518,-1.2141 -4.106038,-2.3513 -5.724267,-3.95595 -1.172012,-1.16219 -1.661876,-1.75538 -2.511956,-3.04178 -1.043762,-1.57951 -1.919412,-3.27497 -2.684628,-5.19809 -1.635261,-4.1097 -2.142033,-7.40206 -1.696101,-11.01917 0.290124,-2.35328 1.236709,-5.32728 2.602378,-8.1762 2.32282,-4.84562 5.188522,-7.7582 9.949172,-10.11193 2.997813,-1.48216 5.584548,-2.32827 8.534935,-2.79176 1.067265,-0.16765 3.772469,-0.16765 4.839733,0 2.844974,0.44692 5.381444,1.25703 8.207927,2.62148 3.764453,1.81724 6.254704,3.85511 8.280644,6.77638 1.819614,2.62376 3.507354,6.48967 4.269454,9.77946 0.68614,2.96192 0.66372,5.97512 -0.0666,8.95516 -0.82967,3.3853 -2.49811,7.12105 -4.342159,9.72241 -2.506951,3.5365 -5.958992,5.94509 -11.419627,7.96777 -1.556608,0.57658 -4.04557,1.15951 -5.611338,1.3142 -0.650614,0.0643 -2.733962,0.0828 -3.209681,0.0286 z m 2.557523,-1.13634 c 1.858169,-0.14603 3.285689,-0.43151 5.061787,-1.01227 4.246755,-1.38864 7.800242,-3.43979 10.015957,-5.78145 2.080695,-2.19896 3.78017,-5.14028 5.069594,-8.77408 1.2869,-3.62663 1.61319,-6.64338 1.06631,-9.85844 -0.44624,-2.62344 -1.66711,-6.00763 -3.086521,-8.55573 -2.128982,-3.82191 -4.662773,-6.21862 -8.683421,-8.21367 -4.156822,-2.06262 -8.145129,-3.04187 -11.445314,-2.8102 -1.595435,0.11201 -2.123148,0.19404 -3.597099,0.5592 -3.274936,0.81132 -6.966541,2.49706 -9.397937,4.29148 -2.401964,1.7727 -4.144576,3.9162 -5.709977,7.02357 -1.718404,3.41107 -2.647745,6.48641 -2.888609,9.55885 -0.250638,3.19714 0.674227,7.14212 2.620476,11.17754 2.234382,4.63285 4.85378,7.32275 9.308216,9.55875 4.203283,2.10994 8.284635,3.10222 11.666538,2.83645 z m -2.76613,-2.94084 c -0.874401,-0.0648 -1.395838,-0.1466 -2.570971,-0.4034 -4.139617,-0.90464 -7.986854,-3.23502 -10.730524,-6.49979 -2.425065,-2.88564 -3.960829,-6.33065 -4.457834,-9.99974 -0.203103,-1.49938 -0.202903,-3.81794 4.59e-4,-5.31951 0.749414,-5.53353 3.893102,-10.54276 8.582318,-13.67527 2.354203,-1.57266 4.836843,-2.5384 7.946318,-3.09107 0.843554,-0.14994 2.922356,-0.22046 4.200797,-0.14253 4.365888,0.26614 8.412139,1.96139 11.770368,4.93142 3.433325,3.03647 5.695609,7.23451 6.374218,11.82841 0.127518,0.86322 0.149459,1.27566 0.149459,2.81059 0,1.53492 -0.02186,1.94735 -0.149459,2.81058 -0.93756,6.34695 -4.909702,11.86034 -10.60576,14.72095 -1.865617,0.93692 -4.087102,1.63318 -6.154473,1.92896 -0.82016,0.11734 -3.341586,0.17547 -4.354916,0.1004 z m 3.838407,-0.98247 c 5.666656,-0.74498 10.384024,-3.67299 13.491083,-8.37377 0.654136,-0.98965 1.535975,-2.73898 1.930293,-3.82916 0.255689,-0.70693 0.652439,-2.12841 0.793559,-2.84311 0.497988,-2.52217 0.399707,-5.59189 -0.260986,-8.15203 -1.365802,-5.29232 -4.924323,-9.67504 -9.865722,-12.15069 -1.731937,-0.8677 -3.910003,-1.51027 -6.15363,-1.81543 -0.814611,-0.11078 -3.377921,-0.11017 -4.185714,8.3e-4 -4.541183,0.62507 -8.25633,2.46139 -11.283608,5.57721 -1.343398,1.3827 -2.116549,2.44785 -3.221533,4.43824 -0.805924,1.4517 -1.648711,4.05413 -1.878609,5.80097 -0.344276,2.61591 -0.22545,5.01166 0.362792,7.31463 0.881464,3.45093 2.542065,6.32281 5.109841,8.83709 3.178787,3.11256 7.132281,4.87957 11.826741,5.28594 0.523679,0.0453 2.76355,-0.0158 3.335493,-0.0909 z"
       id="path3-1" /><text
       xml:space="preserve"
       style="font-style:normal;font-variant:normal;font-weight:normal;font-stretch:normal;font-size:38.544px;line-height:1.25;font-family:'Franklin Gothic Heavy';-inkscape-font-specification:'Franklin Gothic Heavy, Normal';font-variant-ligatures:normal;font-variant-caps:normal;font-variant-numeric:normal;font-variant-east-asian:normal;letter-spacing:0px;word-spacing:0px;fill:#482752;fill-opacity:1;stroke-width:2.8908"
       x="171.04538"
       y="206.6535"
       id="text2"><tspan
         sodipodi:role="line"
         id="tspan2"
         style="font-style:normal;font-variant:normal;font-weight:normal;font-stretch:normal;font-size:38.544px;font-family:'Franklin Gothic Heavy';-inkscape-font-specification:'Franklin Gothic Heavy, Normal';font-variant-ligatures:normal;font-variant-caps:normal;font-variant-numeric:normal;font-variant-east-asian:normal;fill:#482752;fill-opacity:1;stroke-width:2.8908"
         x="171.04538"
         y="206.6535">TM</tspan></text><text
       xml:space="preserve"
       style="font-style:normal;font-variant:normal;font-weight:normal;font-stretch:normal;font-size:39.9881px;line-height:0.85;font-family:Roboto;-inkscape-font-specification:'Roboto, Normal';font-variant-ligatures:normal;font-variant-caps:normal;font-variant-numeric:normal;font-variant-east-asian:normal;letter-spacing:0px;word-spacing:0px;stroke-width:2.9991"
       x="170.08864"
       y="243.87509"
       id="text2-2"><tspan
         sodipodi:role="line"
         id="tspan2-4"
         style="font-style:normal;font-variant:normal;font-weight:normal;font-stretch:normal;font-size:39.9881px;line-height:0.85;font-family:Roboto;-inkscape-font-specification:'Roboto, Normal';font-variant-ligatures:normal;font-variant-caps:normal;font-variant-numeric:normal;font-variant-east-asian:normal;stroke-width:2.9991"
         x="170.08864"
         y="243.87509">Meditation</tspan><tspan
         sodipodi:role="line"
         style="font-style:normal;font-variant:normal;font-weight:normal;font-stretch:normal;font-size:39.9881px;line-height:0.85;font-family:Roboto;-inkscape-font-specification:'Roboto, Normal';font-variant-ligatures:normal;font-variant-caps:normal;font-variant-numeric:normal;font-variant-east-asian:normal;stroke-width:2.9991"
         x="170.08864"
         y="277.86496"
         id="tspan3">Timer</tspan></text></g></svg>
